<?xml version="1.0" standalone="no"?>
<!DOCTYPE svg PUBLIC "-//W3C//DTD SVG 1.1//EN" "http://www.w3.org/Graphics/SVG/1.1/DTD/svg11.dtd" >
<svg>
<metadata>
Created by FontForge 20090622 at Wed Jul 24 08:11:37 2019
 By deploy user
Copyright (c) 2016 by Iulian Maftei All rights reserved.
</metadata>
<defs>
<font id="MoskBold700" horiz-adv-x="568" >
  <font-face 
    font-family="Mosk Bold 700"
    font-weight="700"
    font-stretch="normal"
    units-per-em="1000"
    panose-1="2 0 5 6 0 0 0 2 0 4"
    ascent="800"
    descent="-200"
    x-height="485"
    cap-height="680"
    bbox="-72 -230 1293 943"
    underline-thickness="50"
    underline-position="-75"
    unicode-range="U+0020-U+FB02"
  />
<missing-glyph horiz-adv-x="225" 
 />
    <glyph glyph-name=".notdef" horiz-adv-x="225" 
 />
    <glyph glyph-name="uni00A0" unicode="&#xa0;" horiz-adv-x="236" 
 />
    <glyph glyph-name="A" unicode="A" horiz-adv-x="659" 
d="M10 0l265 680h110l264 -672l-130 -18l-61 170h-258l-60 -160h-130zM238 265h180l-91 237z" />
    <glyph glyph-name="B" unicode="B" horiz-adv-x="629" 
d="M604 200q0 -93 -65 -146.5t-175 -53.5h-279v680h264q105 0 164 -46t59 -144q0 -64 -73 -121q105 -55 105 -169zM435 488q0 46 -26.5 65t-78.5 19h-116v-169h96q57 0 91 21.5t34 63.5zM469 199q0 47 -28.5 73t-77.5 26h-149v-191h140q53 0 84 24t31 68z" />
    <glyph glyph-name="C" unicode="C" horiz-adv-x="564" 
d="M363 694q36 0 88 -11t92 -33l-40 -93l-25 7q-39 12 -62 16.5t-57 4.5q-54 0 -97 -30t-67.5 -86t-24.5 -131q0 -67 21.5 -122.5t62.5 -88t97 -32.5q74 0 149 31l49 -96q-38 -20 -92.5 -32t-98.5 -12q-103 0 -176 46t-110 125.5t-37 179.5q0 104 40.5 185t115 126.5
t172.5 45.5z" />
    <glyph glyph-name="D" unicode="D" horiz-adv-x="691" 
d="M656 344q0 -161 -81.5 -251.5t-231.5 -92.5h-258v680h258q103 0 173.5 -42.5t105 -118t34.5 -175.5zM522 344q0 109 -43 167.5t-131 58.5h-134v-461h127q86 0 133.5 56.5t47.5 178.5z" />
    <glyph glyph-name="E" unicode="E" horiz-adv-x="581" 
d="M540 101l21 -101h-476v680h455l20 -102h-346v-183h222l21 -103h-243v-191h326z" />
    <glyph glyph-name="F" unicode="F" horiz-adv-x="510" 
d="M214 389h213l19 -101h-232v-288h-129v680h385l20 -102h-276v-189z" />
    <glyph glyph-name="G" unicode="G" horiz-adv-x="630" 
d="M469 272h-143l11 100h248v-336q-42 -22 -97 -36t-115 -14q-103 0 -179.5 46.5t-117.5 126.5t-41 178q0 102 45.5 183.5t126.5 127.5t182 46q37 0 91 -11t95 -33l-41 -93q-28 9 -27 8q-38 11 -60.5 15.5t-55.5 4.5q-62 0 -112 -28t-79.5 -83.5t-29.5 -135.5
q0 -73 25 -128.5t70.5 -85t104.5 -29.5q46 0 99 11v166z" />
    <glyph glyph-name="H" unicode="H" horiz-adv-x="696" 
d="M611 680v-680h-129v288h-268v-288h-129v680l129 5v-293h268v288h129z" />
    <glyph glyph-name="I" unicode="I" horiz-adv-x="299" 
d="M214 680v-680h-129v680h129z" />
    <glyph glyph-name="J" unicode="J" horiz-adv-x="294" 
d="M10 -6q37 13 52.5 23.5t20.5 25t5 44.5v593h131v-612q0 -47 -14.5 -77t-48 -51.5t-94.5 -41.5l-52 96v0z" />
    <glyph glyph-name="K" unicode="K" horiz-adv-x="658" 
d="M215 213v-213h-130v680h130v-285l295 300l96 -74l-234 -244l276 -377h-161l-205 283z" />
    <glyph glyph-name="L" unicode="L" horiz-adv-x="544" 
d="M214 101h300l20 -101h-449v680h129v-579z" />
    <glyph glyph-name="M" unicode="M" horiz-adv-x="770" 
d="M554 392l-127 -179l-50 -7l-163 209v-415h-129v680h82l230 -314l209 314h79v-680h-131v392z" />
    <glyph glyph-name="N" unicode="N" horiz-adv-x="744" 
d="M214 455v-455h-129v680h129l315 -454v454h130v-680h-130z" />
    <glyph glyph-name="O" unicode="O" horiz-adv-x="737" 
d="M35 337q0 103 41.5 184t117.5 127t174 48q103 0 179 -46.5t115.5 -126.5t39.5 -179q0 -104 -42 -184.5t-117.5 -126t-174.5 -47.5q-103 0 -178.5 46.5t-115 126t-39.5 178.5zM370 586q-54 0 -99.5 -30.5t-73 -87t-27.5 -130.5q0 -71 24 -126.5t68.5 -86t104.5 -30.5
q56 0 101.5 27.5t72 84t26.5 137.5q0 70 -24 125t-69 86t-104 31z" />
    <glyph glyph-name="P" unicode="P" horiz-adv-x="592" 
d="M214 237v-237h-129v680h213q120 0 194.5 -53.5t74.5 -164.5q0 -74 -38.5 -125t-101.5 -75.5t-138 -24.5h-75zM430 454q0 63 -34.5 90.5t-101.5 27.5h-80v-228h82q60 0 95 27.5t39 82.5z" />
    <glyph glyph-name="Q" unicode="Q" horiz-adv-x="737" 
d="M617 96l67 -65l-76 -67l-71 66q-76 -43 -169 -44q-103 0 -178.5 46.5t-115 126t-39.5 178.5q0 103 41.5 184t117.5 127t174 48q103 0 179 -46.5t115.5 -126.5t39.5 -179q0 -75 -22 -138t-63 -110zM449 112l-82 76l88 67l73 -71q39 63 39 160q0 70 -24 125t-69 86t-104 31
q-54 0 -99.5 -30.5t-73 -87t-27.5 -130.5q0 -71 24 -126.5t68.5 -86t104.5 -30.5q43 0 82 17z" />
    <glyph glyph-name="R" unicode="R" horiz-adv-x="628" 
d="M85 0v680h213q118 0 193.5 -53.5t75.5 -155.5q0 -61 -31.5 -107t-84.5 -72l167 -292h-138l-144 258h-122v-258h-129zM430 465q0 107 -136 107h-80v-208h82q61 0 97.5 24.5t36.5 76.5z" />
    <glyph glyph-name="S" unicode="S" horiz-adv-x="527" 
d="M248 -13q-42 0 -104.5 18.5t-96.5 39.5l29 105q37 -19 84 -33.5t86 -14.5q60 0 91 19t31 55q0 25 -24.5 45.5t-75.5 48.5l-30 18q-67 40 -106.5 69t-68 68.5t-28.5 88.5q0 52 28 93.5t80.5 65t125.5 23.5q86 0 192 -51l-43 -104q-41 20 -74.5 31t-72.5 11
q-45 0 -73.5 -17.5t-28.5 -51.5q0 -29 22.5 -48.5t73.5 -49.5l32 -18l29 -17q59 -34 94 -59.5t58.5 -62t23.5 -85.5q0 -55 -29.5 -97t-87 -66t-137.5 -24z" />
    <glyph glyph-name="T" unicode="T" horiz-adv-x="591" 
d="M10 680h550l21 -102h-233v-578h-131v578h-207v102z" />
    <glyph glyph-name="U" unicode="U" horiz-adv-x="710" 
d="M75 680h131v-423q0 -81 40.5 -121.5t108.5 -40.5t108.5 41.5t40.5 120.5v423h131v-433q0 -74 -35 -132.5t-99 -92t-148 -33.5q-83 0 -146 33.5t-97 92.5t-34 132z" />
    <glyph glyph-name="V" unicode="V" horiz-adv-x="659" 
d="M10 672l130 18l192 -512l187 502h130l-265 -680h-110z" />
    <glyph glyph-name="W" unicode="W" horiz-adv-x="925" 
d="M600 0l-138 496l-138 -496h-110l-204 672l130 18l132 -512l127 502h130l129 -502l127 502h130l-205 -680h-110z" />
    <glyph glyph-name="X" unicode="X" horiz-adv-x="637" 
d="M314 256l-171 -256h-133l238 344l-226 312l113 44l190 -272l167 252h135l-237 -341l224 -339h-136z" />
    <glyph glyph-name="Y" unicode="Y" horiz-adv-x="608" 
d="M362 260v-260h-130v265l-222 392l128 37l158 -298l165 284h137z" />
    <glyph glyph-name="Z" unicode="Z" horiz-adv-x="577" 
d="M155 101h392l15 -101h-532l-15 101l388 477h-344l-15 102h495l15 -102z" />
    <glyph glyph-name="a" unicode="a" horiz-adv-x="503" 
d="M243 378q-33 0 -73 -9.5t-68 -22.5l-35 108q26 17 83 30.5t91 13.5q58 0 106 -23t76.5 -64t28.5 -92v-319h-85l-22 52q-61 -64 -128 -64q-87 0 -131 42.5t-44 114.5q0 74 50 114.5t134 40.5h95q-1 37 -21.5 57.5t-56.5 20.5zM224 213q-32 0 -51.5 -20t-19.5 -48
q0 -22 17.5 -38t44.5 -16q58 0 107 48v74h-98z" />
    <glyph glyph-name="b" unicode="b" horiz-adv-x="554" 
d="M529 244q0 -76 -29.5 -134t-85.5 -90t-133 -32q-30 0 -63 13t-61 33l-26 -34h-66v695l129 11v-230q44 22 91 22q113 0 178.5 -68.5t65.5 -185.5zM395 244q0 64 -30.5 103.5t-84.5 39.5q-42 0 -86 -29v-231q41 -28 86 -28q53 0 84 40.5t31 104.5z" />
    <glyph glyph-name="c" unicode="c" horiz-adv-x="472" 
d="M283 498q34 0 84 -14t84 -37l-37 -93q-38 17 -68 25t-62 8q-54 0 -89.5 -41t-35.5 -104t35 -103t90 -40q32 0 62 8t68 25l37 -94q-31 -24 -81 -37t-87 -13q-78 0 -136.5 31t-90 88.5t-31.5 134.5t31.5 135t90 89.5t136.5 31.5z" />
    <glyph glyph-name="d" unicode="d" horiz-adv-x="572" 
d="M507 0h-68l-30 44q-64 -56 -140 -56q-113 0 -178.5 68.5t-65.5 185.5q0 76 29.5 134t85.5 90t133 32q24 0 51 -8.5t52 -23.5v229l131 11v-706zM274 99q26 0 50.5 10t51.5 30v207q-26 22 -50 31.5t-52 9.5q-53 0 -84 -40.5t-31 -104.5t30.5 -103.5t84.5 -39.5z" />
    <glyph glyph-name="e" unicode="e" horiz-adv-x="515" 
d="M269 498q73 0 123 -34t74 -91.5t24 -128.5v-40h-327q10 -51 43.5 -78t102.5 -27q40 0 72 11t69 32l38 -94q-37 -29 -80 -44.5t-102 -15.5q-138 0 -209.5 67.5t-71.5 186.5q0 77 29.5 135t84.5 89.5t130 31.5zM266 387q-40 0 -67 -24.5t-35 -71.5h203q-10 48 -35.5 72
t-65.5 24z" />
    <glyph glyph-name="f" unicode="f" horiz-adv-x="373" 
d="M87 384h-75v100h75v37q0 85 50 133t139 48q23 0 52 -9t45 -22l-37 -94q-33 13 -54 13q-33 0 -49 -23.5t-16 -63.5v-19h92l41 -100h-133v-614h-130v614z" />
    <glyph glyph-name="g" unicode="g" 
d="M507 -23q0 -100 -70 -153.5t-188 -53.5q-37 0 -100 15.5t-98 39.5l39 92q45 -22 82 -32t74 -11q59 1 94.5 29t35.5 75v41q-50 -31 -107 -31q-113 0 -178.5 68.5t-65.5 185.5q0 76 29.5 134t85.5 90t133 32q33 0 70.5 -16t66.5 -41l29 44h68v-508zM376 139v207
q-26 22 -50 31.5t-52 9.5q-53 0 -84 -40.5t-31 -104.5t30.5 -103.5t84.5 -39.5q26 0 50.5 10t51.5 30z" />
    <glyph glyph-name="h" unicode="h" horiz-adv-x="575" 
d="M524 304v-304h-130v298q0 45 -18.5 70t-51.5 25q-34 0 -64 -15.5t-66 -41.5v-336h-129v695l129 11v-258q41 25 85 39t79 14q92 0 129 -52t37 -145z" />
    <glyph glyph-name="i" unicode="i" horiz-adv-x="240" 
d="M193 627q0 -31 -21.5 -52t-52.5 -21q-30 0 -51 21t-21 52t21 52t51 21q31 0 52.5 -21t21.5 -52zM185 485v-485h-130v485h130z" />
    <glyph glyph-name="j" unicode="j" horiz-adv-x="261" 
d="M63 627q0 31 21 52t52 21t52.5 -21t21.5 -52t-21.5 -52t-52.5 -21t-52 21t-21 52zM202 485v-715h-130v715h130z" />
    <glyph glyph-name="k" unicode="k" horiz-adv-x="517" 
d="M194 159v-159h-129v695l129 11v-398l208 191l73 -92l-136 -119l178 -288h-149l-122 205z" />
    <glyph glyph-name="l" unicode="l" horiz-adv-x="259" 
d="M194 706v-706h-129v695z" />
    <glyph glyph-name="m" unicode="m" horiz-adv-x="855" 
d="M804 324v-324h-130v298q0 47 -14.5 71t-45.5 24q-30 0 -55 -14t-64 -42v-13v-324h-130v298q0 47 -14.5 71t-45.5 24q-30 0 -55 -14t-65 -43v-336h-130v485h85l22 -52q45 32 93 50t84 18q99 0 134 -66q45 31 92 48.5t83 17.5q83 0 119.5 -44.5t36.5 -132.5z" />
    <glyph glyph-name="n" unicode="n" horiz-adv-x="566" 
d="M315 393q-34 0 -64 -15.5t-66 -41.5v-336h-130v485h85l22 -52q45 32 96 50t91 18q92 0 129 -52t37 -145v-304h-130v298q0 45 -18.5 70t-51.5 25z" />
    <glyph glyph-name="o" unicode="o" 
d="M284 -12q-78 0 -136.5 31t-90.5 88.5t-32 134.5t32 135t90.5 89.5t136.5 31.5t136.5 -31t90.5 -88.5t32 -134.5t-32 -135t-90.5 -89.5t-136.5 -31.5zM409 244q0 63 -35 103t-90 40q-54 0 -89.5 -41t-35.5 -104t35 -103t90 -40q54 0 89.5 41t35.5 104z" />
    <glyph glyph-name="p" unicode="p" horiz-adv-x="550" 
d="M525 244q0 -76 -29.5 -134t-85.5 -90t-133 -32q-41 0 -87 23v-241h-129v715h66l26 -33q59 46 128 46q113 0 178.5 -68.5t65.5 -185.5zM391 244q0 64 -30.5 103.5t-84.5 39.5q-42 0 -86 -29v-231q41 -28 86 -28q53 0 84 40.5t31 104.5z" />
    <glyph glyph-name="q" unicode="q" 
d="M507 -230h-131v249q-50 -31 -107 -31q-113 0 -178.5 68.5t-65.5 185.5q0 76 29.5 134t85.5 90t133 32q33 0 70.5 -16t66.5 -41l29 44h68v-715zM376 139v207q-26 22 -50 31.5t-52 9.5q-53 0 -84 -40.5t-31 -104.5t30.5 -103.5t84.5 -39.5q26 0 50.5 10t51.5 30z" />
    <glyph glyph-name="r" unicode="r" horiz-adv-x="367" 
d="M357 381q-33 0 -81.5 -24t-90.5 -61v-296h-130v485h68l43 -81q35 31 82 56t83 25l26 -104v0z" />
    <glyph glyph-name="s" unicode="s" horiz-adv-x="422" 
d="M195 -12q-37 0 -87 13t-81 37l39 88q74 -33 127 -33q30 0 55 11t25 31q0 39 -85 65q-69 23 -115 59t-46 91q0 69 51 108.5t138 39.5q34 0 83 -14t83 -37l-39 -87q-38 17 -67.5 25t-61.5 8q-25 0 -41.5 -12.5t-16.5 -29.5q0 -13 19.5 -23.5t56.5 -23.5q71 -26 118 -66
t47 -98q0 -73 -52 -112.5t-150 -39.5z" />
    <glyph glyph-name="t" unicode="t" horiz-adv-x="381" 
d="M204 484h88l40 -100h-128v-206q0 -39 18.5 -63t52.5 -24q26 0 53 13l38 -94q-15 -12 -44.5 -21t-53.5 -9q-91 0 -142 46t-51 129v229h-65v100h65v115l129 23v-138z" />
    <glyph glyph-name="u" unicode="u" horiz-adv-x="566" 
d="M251 92q34 0 64 15.5t66 41.5v336h130v-485h-85l-22 52q-45 -32 -96 -50t-91 -18q-92 0 -129 52t-37 145v304h130v-298q0 -45 18.5 -70t51.5 -25z" />
    <glyph glyph-name="v" unicode="v" horiz-adv-x="502" 
d="M492 485l-191 -485h-112l-179 465l127 38l112 -312l106 294h137z" />
    <glyph glyph-name="w" unicode="w" horiz-adv-x="717" 
d="M707 485l-155 -485h-109l-91 297l-87 -297h-110l-145 465l128 38l75 -300l70 282h143l75 -282l69 282h137z" />
    <glyph glyph-name="x" unicode="x" horiz-adv-x="510" 
d="M251 146l-97 -146h-144l165 247l-148 217l121 37l110 -171l100 155h142l-165 -257l149 -228h-143z" />
    <glyph glyph-name="y" unicode="y" horiz-adv-x="503" 
d="M492 485l-190 -483v-232h-113v230l-179 465l127 38l112 -312l106 294h137z" />
    <glyph glyph-name="z" unicode="z" horiz-adv-x="443" 
d="M25 485h388l7 -74l-244 -306h244l10 -105h-400l-17 69l241 309h-204z" />
    <glyph glyph-name="fi" unicode="&#xfb01;" horiz-adv-x="613" 
d="M87 384h-75v100h75v37q0 85 50 133t139 48q23 0 52 -9t45 -22l-37 -94q-33 13 -54 13q-33 0 -49 -23.5t-16 -63.5v-19h92l41 -100h-133v-614h-130v614zM566 627q0 -31 -21.5 -52t-52.5 -21q-30 0 -51 21t-21 52t21 52t51 21q31 0 52.5 -21t21.5 -52zM558 485v-485h-130
v485h130z" />
    <glyph glyph-name="fl" unicode="&#xfb02;" horiz-adv-x="632" 
d="M87 384h-75v100h75v37q0 85 50 133t139 48q23 0 52 -9t45 -22l-37 -94q-33 13 -54 13q-33 0 -49 -23.5t-16 -63.5v-19h92l41 -100h-133v-614h-130v614zM567 706v-706h-129v695z" />
    <glyph glyph-name="zero" unicode="0" horiz-adv-x="606" 
d="M303 -13q-79 0 -142.5 38.5t-99.5 106.5t-36 153q0 84 36 151t99.5 105t143.5 38q79 0 142.5 -37.5t99 -104.5t35.5 -150q0 -86 -36 -154.5t-99.5 -107t-142.5 -38.5zM303 469q-45 0 -81.5 -23.5t-57 -64.5t-20.5 -93q0 -54 20.5 -97.5t57 -68t82.5 -24.5t82.5 24t57 66
t20.5 95t-21 95.5t-57.5 66.5t-82.5 24z" />
    <glyph glyph-name="one" unicode="1" horiz-adv-x="368" 
d="M303 566v-566h-130v422l-114 -44l-49 97l206 91h87z" />
    <glyph glyph-name="two" unicode="2" horiz-adv-x="487" 
d="M38 527q87 52 193 52q63 0 109 -23t71 -63t25 -90q0 -66 -31 -113t-108 -112l-95 -79h253l12 -99h-442v87l202 172q52 44 76 77t24 62q0 37 -29.5 56.5t-79.5 19.5q-68 0 -157 -51l-23 104v0z" />
    <glyph glyph-name="three" unicode="3" horiz-adv-x="484" 
d="M19 509q52 34 104 52t109 18q67 0 114.5 -23.5t71.5 -63t24 -87.5q0 -43 -25 -80.5t-56 -51.5q20 -5 41.5 -26t36.5 -54t15 -72q0 -55 -29 -100t-83 -71t-124 -26q-51 0 -109 18t-109 45l66 87q40 -24 75 -34.5t79 -10.5q47 0 81 25t34 66q0 47 -37 73.5t-113 26.5h-42
l-18 101h66q60 0 96 22.5t36 59.5q0 30 -26 50.5t-68 20.5q-74 0 -149 -52l-61 87v0z" />
    <glyph glyph-name="four" unicode="4" horiz-adv-x="560" 
d="M435 166h105l-13 -107h-92v-128h-131v128h-277l-17 107l328 405h97v-405zM304 166v197l-154 -197h154z" />
    <glyph glyph-name="five" unicode="5" horiz-adv-x="512" 
d="M269 253q-32 0 -55 -14.5t-31 -32.5h-115l18 360h366l-14 -105h-242l-6 -119q29 15 74 15q72 0 122 -28.5t75 -76t26 -105.5q0 -65 -30 -116t-85.5 -79t-130.5 -28q-52 0 -109.5 17.5t-106.5 44.5l64 91q42 -23 77 -33.5t78 -10.5q54 0 89.5 31t35.5 83q0 48 -28 77
t-72 29z" />
    <glyph glyph-name="six" unicode="6" horiz-adv-x="525" 
d="M500 195q0 -61 -28 -108t-77 -73.5t-111 -26.5q-76 0 -134.5 30.5t-91.5 90t-33 144.5q0 110 61 192.5t151 130.5t178 59l18 -107q-186 -51 -252 -148q48 23 100 23q62 0 112 -28t78.5 -75t28.5 -104zM384 190q0 47 -30 78.5t-76 31.5q-77 0 -132 -41q1 -84 37 -124.5
t97 -40.5q44 0 74 28t30 68z" />
    <glyph glyph-name="seven" unicode="7" horiz-adv-x="474" 
d="M454 514l-196 -583l-121 35l174 495h-285l-16 105h406z" />
    <glyph glyph-name="eight" unicode="8" horiz-adv-x="514" 
d="M51 468q0 48 25.5 88t72.5 63.5t109 23.5t108.5 -23.5t72 -63.5t25.5 -88q0 -41 -24 -75.5t-63 -52.5q44 -15 78 -60.5t34 -94.5q0 -54 -28 -99.5t-80.5 -72t-122.5 -26.5q-71 0 -124 26.5t-81 71.5t-28 100q0 49 34 94.5t78 60.5q-39 17 -62.5 52t-23.5 76zM347 468
q0 28 -26.5 48.5t-64.5 20.5q-37 0 -63 -21t-26 -50q0 -33 23.5 -53.5t67.5 -27.5q44 7 66.5 28t22.5 55zM373 183q0 38 -30.5 67t-84.5 38q-56 -9 -86 -38t-30 -67q0 -41 34 -66t81 -25q46 0 81 25t35 66z" />
    <glyph glyph-name="nine" unicode="9" horiz-adv-x="525" 
d="M500 314q0 -110 -61 -192.5t-151 -130.5t-178 -59l-18 107q186 51 252 148q-48 -23 -100 -23q-62 0 -112 28t-78.5 75t-28.5 104q0 61 28 108t77 73.5t111 26.5q76 0 134.5 -30.5t91.5 -90t33 -144.5zM247 266q77 0 132 41q-1 84 -37 124.5t-97 40.5q-44 0 -74 -28
t-30 -68q0 -47 30 -78.5t76 -31.5z" />
    <glyph glyph-name="grave" unicode="`" horiz-adv-x="205" 
d="M195 614l-90 -25l-95 164h134z" />
    <glyph glyph-name="dieresis" unicode="&#xa8;" horiz-adv-x="341" 
d="M139 667q0 -27 -18 -45.5t-45 -18.5q-28 0 -47 18.5t-19 45.5t19 46t47 19q27 0 45 -19t18 -46zM331 667q0 -27 -18.5 -45.5t-46.5 -18.5q-27 0 -46 18.5t-19 45.5t19.5 46t45.5 19q28 0 46.5 -19t18.5 -46z" />
    <glyph glyph-name="acute" unicode="&#xb4;" horiz-adv-x="205" 
d="M195 753l-95 -164l-90 25l51 139h134z" />
    <glyph glyph-name="circumflex" unicode="&#x2c6;" horiz-adv-x="395" 
d="M266 589l-66 65l-67 -65l-123 16l152 148h71l152 -148z" />
    <glyph glyph-name="caron" unicode="&#x2c7;" horiz-adv-x="395" 
d="M133 753l67 -65l66 65l119 -16l-152 -148h-71l-152 148z" />
    <glyph glyph-name="breve" unicode="&#x2d8;" horiz-adv-x="314" 
d="M157 682q30 0 45 21t15 50h87q0 -68 -38 -115.5t-109 -48.5q-71 1 -109 48.5t-38 115.5h89q0 -30 14 -50.5t44 -20.5z" />
    <glyph glyph-name="dotaccent" unicode="&#x2d9;" horiz-adv-x="166" 
d="M156 667q0 -31 -20.5 -52t-51.5 -21t-52.5 21t-21.5 52t21.5 52.5t52.5 21.5t51.5 -21.5t20.5 -52.5z" />
    <glyph glyph-name="ring" unicode="&#x2da;" horiz-adv-x="234" 
d="M10 692q0 42 32 71.5t75 29.5t75 -29.5t32 -71.5t-31.5 -70t-75.5 -28t-75.5 28t-31.5 70zM77 692q0 -16 12 -28t28 -12t27.5 12t11.5 28t-11.5 27.5t-27.5 11.5t-28 -11.5t-12 -27.5z" />
    <glyph glyph-name="tilde" unicode="&#x2dc;" horiz-adv-x="347" 
d="M229 685q11 0 19 9.5t8 21.5h81q0 -63 -31 -92t-76 -29q-20 0 -31.5 5t-23.5 14q-15 9 -24.5 13t-26.5 4q-11 0 -19.5 -10.5t-8.5 -20.5h-86q0 62 31 91t76 29q19 0 31.5 -4.5t26.5 -13.5q15 -9 26 -13t28 -4z" />
    <glyph glyph-name="hungarumlaut" unicode="&#x2dd;" horiz-adv-x="405" 
d="M195 753l-95 -164l-90 25l51 139h134zM395 753l-95 -164l-90 25l51 139h134z" />
    <glyph glyph-name="ogonek" unicode="&#x2db;" horiz-adv-x="238" 
d="M10 -94q0 21 12.5 52t25.5 47h115q-15 -14 -29.5 -41t-14.5 -47q0 -12 8 -20t23 -8q7 0 18.5 4.5t22.5 12.5l37 -80q-44 -33 -102 -33q-51 0 -83.5 33t-32.5 80z" />
    <glyph glyph-name="cedilla" unicode="&#xb8;" horiz-adv-x="241" 
d="M139 -120q0 18 -25.5 29.5t-62.5 15.5l35 88h93l-18 -42q30 -12 50 -37.5t20 -51.5q0 -50 -36.5 -76.5t-89.5 -26.5q-21 0 -50.5 8t-44.5 20l30 76q14 -7 33.5 -13.5t31.5 -6.5q14 0 24 4t10 13z" />
    <glyph glyph-name="Thorn" unicode="&#xde;" horiz-adv-x="607" 
d="M567 382q0 -74 -38.5 -125t-101.5 -75.5t-138 -24.5h-75v-157h-129v680h129v-80h84q120 0 194.5 -53.5t74.5 -164.5zM430 374q0 63 -34.5 90.5t-101.5 27.5h-80v-228h82q60 0 95 27.5t39 82.5z" />
    <glyph glyph-name="Eth" unicode="&#xd0;" horiz-adv-x="691" 
d="M656 344q0 -159 -82 -250.5t-231 -94.5l-258 1v291h-56l-11 101h67v288h258q103 0 173.5 -42.5t105 -118t34.5 -175.5zM522 344q0 109 -43 167.5t-131 58.5h-134v-178h72l9 -101h-81v-182h127q86 0 133.5 56.5t47.5 178.5z" />
    <glyph glyph-name="AE" unicode="&#xc6;" horiz-adv-x="962" 
d="M234 160l-110 -170l-124 18l453 672h421l19 -102h-296v-183h222l21 -103h-243v-191h325l20 -101h-476v160h-232zM466 265v237l-162 -237h162z" />
    <glyph glyph-name="Lslash" unicode="&#x141;" horiz-adv-x="556" 
d="M54 185l-49 91l80 60v344h129v-246l106 80l50 -91l-156 -117v-205h300l20 -101h-449v208z" />
    <glyph glyph-name="OE" unicode="&#x152;" horiz-adv-x="986" 
d="M490 7q-71 -21 -132 -21q-103 0 -176 46t-110 125.5t-37 179.5q0 104 40.5 185t115 126.5t172.5 45.5q25 0 59.5 -5.5t67.5 -16.5v8h406l20 -102h-297v-183h222l21 -103h-243v-191h326l21 -101h-476v7zM490 122v439q-47 14 -71 19t-60 5q-54 0 -97 -30t-67.5 -86
t-24.5 -131q0 -67 21.5 -122.5t62.5 -88t97 -32.5q69 0 139 27z" />
    <glyph glyph-name="Oslash" unicode="&#xd8;" horiz-adv-x="737" 
d="M702 344q0 -104 -42 -184.5t-117.5 -126t-174.5 -47.5q-103 0 -178.5 46.5t-115 126t-39.5 178.5q0 103 41.5 184t117.5 127t174 48q103 0 179 -46.5t115.5 -126.5t39.5 -179zM170 338q0 -56 15 -103t44 -79l178 427q-18 3 -37 3q-54 0 -99.5 -30.5t-73 -87t-27.5 -130.5
zM567 344q0 104 -50 171l-176 -418q16 -2 26 -2q56 0 101.5 27.5t72 84t26.5 137.5z" />
    <glyph glyph-name="germandbls" unicode="&#xdf;" horiz-adv-x="626" 
d="M194 -230h-129v703q0 104 62.5 166.5t172.5 62.5q109 0 178 -50.5t69 -143.5q0 -40 -23.5 -80t-57.5 -56q32 -8 62 -33.5t49 -63t19 -80.5q0 -59 -30 -103t-85 -68t-127 -24h-100v107h91q47 0 80.5 26.5t33.5 65.5q0 42 -31 71t-74 29h-94v104h35q52 0 84 28t32 68
q0 41 -30.5 66t-74.5 25q-49 0 -80.5 -32.5t-31.5 -86.5v-701z" />
    <glyph glyph-name="eth" unicode="&#xf0;" 
d="M543 270q0 -87 -32 -151t-90.5 -97.5t-136.5 -33.5t-136.5 31t-90.5 88.5t-32 134.5q0 76 31.5 134.5t88 90t129.5 31.5q9 0 27 -2q-27 30 -65 60l-131 -71l-51 92l82 43q-27 15 -72 35l50 94q74 -21 145 -64l108 57l50 -89l-65 -35q87 -74 139 -165.5t52 -182.5z
M409 244q0 64 -23 122q-45 21 -102 21q-54 0 -89.5 -41t-35.5 -104t35 -103t90 -40q54 0 89.5 41t35.5 104z" />
    <glyph glyph-name="thorn" unicode="&#xfe;" horiz-adv-x="550" 
d="M525 244q0 -76 -29.5 -134t-85.5 -90t-133 -32q-38 0 -87 26v-223l-129 -10v914l129 11v-232q48 24 91 24q113 0 178.5 -68.5t65.5 -185.5zM391 244q0 64 -30.5 103.5t-84.5 39.5q-42 0 -86 -29v-231q41 -28 86 -28q53 0 84 40.5t31 104.5z" />
    <glyph glyph-name="florin" unicode="&#x192;" horiz-adv-x="442" 
d="M81 384v100h75v37q0 85 50 133t139 48q23 0 52 -9t45 -22l-37 -94q-32 13 -54 13q-33 0 -49 -23.5t-16 -63.5v-19h92l41 -100h-133v-326q0 -85 -50 -133t-139 -48q-23 0 -52 9t-45 22l37 94q33 -13 54 -13q33 0 49 23.5t16 63.5v308h-75z" />
    <glyph glyph-name="ae" unicode="&#xe6;" horiz-adv-x="813" 
d="M461 204q10 -51 43.5 -78t102.5 -27q40 0 72 11t69 32l38 -94q-37 -29 -80 -44.5t-102 -15.5q-144 0 -217 75q-35 -34 -73.5 -54.5t-96.5 -20.5q-87 0 -131 42.5t-44 114.5q0 74 50 114.5t134 40.5h95q-1 37 -21.5 57.5t-56.5 20.5q-33 0 -73 -9.5t-68 -22.5l-35 108
q26 17 83 30.5t91 13.5q47 0 88 -15.5t71 -43.5q64 59 167 59q73 0 123 -34t74 -91.5t24 -128.5v-40h-327zM564 387q-40 0 -67 -24.5t-35 -71.5h203q-10 48 -35.5 72t-65.5 24zM338 144q-11 33 -14 69h-100q-32 0 -51.5 -20t-19.5 -48q0 -22 17.5 -38t44.5 -16
q44 0 71.5 13.5t51.5 39.5z" />
    <glyph glyph-name="oe" unicode="&#x153;" horiz-adv-x="842" 
d="M490 204q10 -51 43.5 -78t102.5 -27q40 0 72 11t69 32l38 -94q-37 -29 -80 -44.5t-102 -15.5q-114 0 -185 48q-31 -23 -80 -35.5t-85 -12.5q-78 0 -136.5 31t-90 88.5t-31.5 134.5t31.5 135t90 89.5t136.5 31.5q32 0 79.5 -12.5t81.5 -33.5q61 46 152 46q73 0 123 -34
t74 -91.5t24 -128.5v-40h-327zM284 99q46 0 94 18q-26 55 -26 125q0 72 26 127q-48 18 -94 18q-54 0 -89.5 -41t-35.5 -104t35 -103t90 -40zM593 387q-40 0 -67 -24.5t-35 -71.5h203q-10 48 -35.5 72t-65.5 24z" />
    <glyph glyph-name="lslash" unicode="&#x142;" horiz-adv-x="366" 
d="M248 484l67 51l51 -90l-118 -89v-356h-129v257l-69 -51l-50 90l119 90v309l129 11v-222z" />
    <glyph glyph-name="dotlessi" unicode="&#x131;" horiz-adv-x="240" 
d="M185 485v-485h-130v485h130z" />
    <glyph glyph-name="oslash" unicode="&#xf8;" 
d="M543 244q0 -77 -32 -135t-90.5 -89.5t-136.5 -31.5t-136.5 31t-90.5 88.5t-32 134.5t32 135t90.5 89.5t136.5 31.5t136.5 -31t90.5 -88.5t32 -134.5zM159 242q0 -47 20 -82l128 225q-14 2 -23 2q-54 0 -89.5 -41t-35.5 -104zM409 244q0 41 -16 75l-130 -218q14 -2 21 -2
q54 0 89.5 41t35.5 104z" />
    <glyph glyph-name="Agrave" unicode="&#xc0;" horiz-adv-x="659" 
d="M376 764l-90 -25l-95 164h134zM10 0l265 680h110l264 -672l-130 -18l-61 170h-258l-60 -160h-130zM238 265h180l-91 237z" />
    <glyph glyph-name="Aacute" unicode="&#xc1;" horiz-adv-x="659" 
d="M441 903l-95 -164l-90 25l51 139h134zM10 0l265 680h110l264 -672l-130 -18l-61 170h-258l-60 -160h-130zM238 265h180l-91 237z" />
    <glyph glyph-name="Acircumflex" unicode="&#xc2;" horiz-adv-x="659" 
d="M391 739l-66 65l-67 -65l-123 16l152 148h71l152 -148zM10 0l265 680h110l264 -672l-130 -18l-61 170h-258l-60 -160h-130zM238 265h180l-91 237z" />
    <glyph glyph-name="Atilde" unicode="&#xc3;" horiz-adv-x="659" 
d="M374 835q11 0 19 9.5t8 21.5h81q0 -63 -31 -92t-76 -29q-20 0 -31.5 5t-23.5 14q-15 9 -24.5 13t-26.5 4q-11 0 -19.5 -10.5t-8.5 -20.5h-86q0 62 31 91t76 29q19 0 31.5 -4.5t26.5 -13.5q15 -9 26 -13t28 -4zM10 0l265 680h110l264 -672l-130 -18l-61 170h-258l-60 -160
h-130zM238 265h180l-91 237z" />
    <glyph glyph-name="Adieresis" unicode="&#xc4;" horiz-adv-x="659" 
d="M295 817q0 -27 -18 -45.5t-45 -18.5q-28 0 -47 18.5t-19 45.5t19 46t47 19q27 0 45 -19t18 -46zM487 817q0 -27 -18.5 -45.5t-46.5 -18.5q-27 0 -46 18.5t-19 45.5t19.5 46t45.5 19q28 0 46.5 -19t18.5 -46zM10 0l265 680h110l264 -672l-130 -18l-61 170h-258l-60 -160
h-130zM238 265h180l-91 237z" />
    <glyph glyph-name="Aring" unicode="&#xc5;" horiz-adv-x="659" 
d="M218 842q0 42 32 71.5t75 29.5t75 -29.5t32 -71.5t-31.5 -70t-75.5 -28t-75.5 28t-31.5 70zM285 842q0 -16 12 -28t28 -12t27.5 12t11.5 28t-11.5 27.5t-27.5 11.5t-28 -11.5t-12 -27.5zM10 0l265 680h110l264 -672l-130 -18l-61 170h-258l-60 -160h-130zM238 265h180
l-91 237z" />
    <glyph glyph-name="Ccedilla" unicode="&#xc7;" horiz-adv-x="564" 
d="M461 -118q0 -50 -36.5 -76.5t-89.5 -26.5q-21 0 -50.5 8t-44.5 20l30 76q14 -7 33.5 -13.5t31.5 -6.5q14 0 24 4t10 13q0 18 -25.5 29.5t-62.5 15.5l26 64q-87 11 -148.5 59.5t-92.5 123t-31 165.5q0 104 40.5 185t115 126.5t172.5 45.5q36 0 88 -11t92 -33l-40 -93
l-25 7q-39 12 -62 16.5t-57 4.5q-54 0 -97 -30t-67.5 -86t-24.5 -131q0 -67 21.5 -122.5t62.5 -88t97 -32.5q74 0 149 31l49 -96q-30 -15 -70.5 -26t-80.5 -16l-7 -17q30 -12 50 -37.5t20 -51.5z" />
    <glyph glyph-name="Egrave" unicode="&#xc8;" horiz-adv-x="581" 
d="M351 764l-90 -25l-95 164h134zM540 101l21 -101h-476v680h455l20 -102h-346v-183h222l21 -103h-243v-191h326z" />
    <glyph glyph-name="Eacute" unicode="&#xc9;" horiz-adv-x="581" 
d="M416 903l-95 -164l-90 25l51 139h134zM540 101l21 -101h-476v680h455l20 -102h-346v-183h222l21 -103h-243v-191h326z" />
    <glyph glyph-name="Ecircumflex" unicode="&#xca;" horiz-adv-x="581" 
d="M366 739l-66 65l-67 -65l-123 16l152 148h71l152 -148zM540 101l21 -101h-476v680h455l20 -102h-346v-183h222l21 -103h-243v-191h326z" />
    <glyph glyph-name="Edieresis" unicode="&#xcb;" horiz-adv-x="581" 
d="M270 817q0 -27 -18 -45.5t-45 -18.5q-28 0 -47 18.5t-19 45.5t19 46t47 19q27 0 45 -19t18 -46zM462 817q0 -27 -18.5 -45.5t-46.5 -18.5q-27 0 -46 18.5t-19 45.5t19.5 46t45.5 19q28 0 46.5 -19t18.5 -46zM540 101l21 -101h-476v680h455l20 -102h-346v-183h222l21 -103
h-243v-191h326z" />
    <glyph glyph-name="Igrave" unicode="&#xcc;" horiz-adv-x="299" 
d="M201 764l-90 -25l-95 164h134zM214 680v-680h-129v680h129z" />
    <glyph glyph-name="Iacute" unicode="&#xcd;" horiz-adv-x="299" 
d="M266 903l-95 -164l-90 25l51 139h134zM214 680v-680h-129v680h129z" />
    <glyph glyph-name="Icircumflex" unicode="&#xce;" horiz-adv-x="299" 
d="M216 739l-66 65l-67 -65l-123 16l152 148h71l152 -148zM214 680v-680h-129v680h129z" />
    <glyph glyph-name="Idieresis" unicode="&#xcf;" horiz-adv-x="299" 
d="M120 817q0 -27 -18 -45.5t-45 -18.5q-28 0 -47 18.5t-19 45.5t19 46t47 19q27 0 45 -19t18 -46zM312 817q0 -27 -18.5 -45.5t-46.5 -18.5q-27 0 -46 18.5t-19 45.5t19.5 46t45.5 19q28 0 46.5 -19t18.5 -46zM214 680v-680h-129v680h129z" />
    <glyph glyph-name="Ntilde" unicode="&#xd1;" horiz-adv-x="744" 
d="M425 835q11 0 19 9.5t8 21.5h81q0 -63 -31 -92t-76 -29q-20 0 -31.5 5t-23.5 14q-15 9 -24.5 13t-26.5 4q-11 0 -19.5 -10.5t-8.5 -20.5h-86q0 62 31 91t76 29q19 0 31.5 -4.5t26.5 -13.5q15 -9 26 -13t28 -4zM214 455v-455h-129v680h129l315 -454v454h130v-680h-130z
" />
    <glyph glyph-name="Ograve" unicode="&#xd2;" horiz-adv-x="737" 
d="M417 764l-90 -25l-95 164h134zM35 337q0 103 41.5 184t117.5 127t174 48q103 0 179 -46.5t115.5 -126.5t39.5 -179q0 -104 -42 -184.5t-117.5 -126t-174.5 -47.5q-103 0 -178.5 46.5t-115 126t-39.5 178.5zM370 586q-54 0 -99.5 -30.5t-73 -87t-27.5 -130.5
q0 -71 24 -126.5t68.5 -86t104.5 -30.5q56 0 101.5 27.5t72 84t26.5 137.5q0 70 -24 125t-69 86t-104 31z" />
    <glyph glyph-name="Oacute" unicode="&#xd3;" horiz-adv-x="737" 
d="M482 903l-95 -164l-90 25l51 139h134zM35 337q0 103 41.5 184t117.5 127t174 48q103 0 179 -46.5t115.5 -126.5t39.5 -179q0 -104 -42 -184.5t-117.5 -126t-174.5 -47.5q-103 0 -178.5 46.5t-115 126t-39.5 178.5zM370 586q-54 0 -99.5 -30.5t-73 -87t-27.5 -130.5
q0 -71 24 -126.5t68.5 -86t104.5 -30.5q56 0 101.5 27.5t72 84t26.5 137.5q0 70 -24 125t-69 86t-104 31z" />
    <glyph glyph-name="Ocircumflex" unicode="&#xd4;" horiz-adv-x="737" 
d="M432 739l-66 65l-67 -65l-123 16l152 148h71l152 -148zM35 337q0 103 41.5 184t117.5 127t174 48q103 0 179 -46.5t115.5 -126.5t39.5 -179q0 -104 -42 -184.5t-117.5 -126t-174.5 -47.5q-103 0 -178.5 46.5t-115 126t-39.5 178.5zM370 586q-54 0 -99.5 -30.5t-73 -87
t-27.5 -130.5q0 -71 24 -126.5t68.5 -86t104.5 -30.5q56 0 101.5 27.5t72 84t26.5 137.5q0 70 -24 125t-69 86t-104 31z" />
    <glyph glyph-name="Otilde" unicode="&#xd5;" horiz-adv-x="737" 
d="M415 835q11 0 19 9.5t8 21.5h81q0 -63 -31 -92t-76 -29q-20 0 -31.5 5t-23.5 14q-15 9 -24.5 13t-26.5 4q-11 0 -19.5 -10.5t-8.5 -20.5h-86q0 62 31 91t76 29q19 0 31.5 -4.5t26.5 -13.5q15 -9 26 -13t28 -4zM35 337q0 103 41.5 184t117.5 127t174 48q103 0 179 -46.5
t115.5 -126.5t39.5 -179q0 -104 -42 -184.5t-117.5 -126t-174.5 -47.5q-103 0 -178.5 46.5t-115 126t-39.5 178.5zM370 586q-54 0 -99.5 -30.5t-73 -87t-27.5 -130.5q0 -71 24 -126.5t68.5 -86t104.5 -30.5q56 0 101.5 27.5t72 84t26.5 137.5q0 70 -24 125t-69 86t-104 31z
" />
    <glyph glyph-name="Odieresis" unicode="&#xd6;" horiz-adv-x="737" 
d="M336 817q0 -27 -18 -45.5t-45 -18.5q-28 0 -47 18.5t-19 45.5t19 46t47 19q27 0 45 -19t18 -46zM528 817q0 -27 -18.5 -45.5t-46.5 -18.5q-27 0 -46 18.5t-19 45.5t19.5 46t45.5 19q28 0 46.5 -19t18.5 -46zM35 337q0 103 41.5 184t117.5 127t174 48q103 0 179 -46.5
t115.5 -126.5t39.5 -179q0 -104 -42 -184.5t-117.5 -126t-174.5 -47.5q-103 0 -178.5 46.5t-115 126t-39.5 178.5zM370 586q-54 0 -99.5 -30.5t-73 -87t-27.5 -130.5q0 -71 24 -126.5t68.5 -86t104.5 -30.5q56 0 101.5 27.5t72 84t26.5 137.5q0 70 -24 125t-69 86t-104 31z
" />
    <glyph glyph-name="Scaron" unicode="&#x160;" horiz-adv-x="527" 
d="M206 903l67 -65l66 65l119 -16l-152 -148h-71l-152 148zM248 -13q-42 0 -104.5 18.5t-96.5 39.5l29 105q37 -19 84 -33.5t86 -14.5q60 0 91 19t31 55q0 25 -24.5 45.5t-75.5 48.5l-30 18q-67 40 -106.5 69t-68 68.5t-28.5 88.5q0 52 28 93.5t80.5 65t125.5 23.5
q86 0 192 -51l-43 -104q-41 20 -74.5 31t-72.5 11q-45 0 -73.5 -17.5t-28.5 -51.5q0 -29 22.5 -48.5t73.5 -49.5l32 -18l29 -17q59 -34 94 -59.5t58.5 -62t23.5 -85.5q0 -55 -29.5 -97t-87 -66t-137.5 -24z" />
    <glyph glyph-name="Ugrave" unicode="&#xd9;" horiz-adv-x="710" 
d="M404 764l-90 -25l-95 164h134zM75 680h131v-423q0 -81 40.5 -121.5t108.5 -40.5t108.5 41.5t40.5 120.5v423h131v-433q0 -74 -35 -132.5t-99 -92t-148 -33.5q-83 0 -146 33.5t-97 92.5t-34 132z" />
    <glyph glyph-name="Uacute" unicode="&#xda;" horiz-adv-x="710" 
d="M469 903l-95 -164l-90 25l51 139h134zM75 680h131v-423q0 -81 40.5 -121.5t108.5 -40.5t108.5 41.5t40.5 120.5v423h131v-433q0 -74 -35 -132.5t-99 -92t-148 -33.5q-83 0 -146 33.5t-97 92.5t-34 132z" />
    <glyph glyph-name="Ucircumflex" unicode="&#xdb;" horiz-adv-x="710" 
d="M419 739l-66 65l-67 -65l-123 16l152 148h71l152 -148zM75 680h131v-423q0 -81 40.5 -121.5t108.5 -40.5t108.5 41.5t40.5 120.5v423h131v-433q0 -74 -35 -132.5t-99 -92t-148 -33.5q-83 0 -146 33.5t-97 92.5t-34 132z" />
    <glyph glyph-name="Udieresis" unicode="&#xdc;" horiz-adv-x="710" 
d="M323 817q0 -27 -18 -45.5t-45 -18.5q-28 0 -47 18.5t-19 45.5t19 46t47 19q27 0 45 -19t18 -46zM515 817q0 -27 -18.5 -45.5t-46.5 -18.5q-27 0 -46 18.5t-19 45.5t19.5 46t45.5 19q28 0 46.5 -19t18.5 -46zM75 680h131v-423q0 -81 40.5 -121.5t108.5 -40.5t108.5 41.5
t40.5 120.5v423h131v-433q0 -74 -35 -132.5t-99 -92t-148 -33.5q-83 0 -146 33.5t-97 92.5t-34 132z" />
    <glyph glyph-name="Yacute" unicode="&#xdd;" horiz-adv-x="608" 
d="M410 903l-95 -164l-90 25l51 139h134zM362 260v-260h-130v265l-222 392l128 37l158 -298l165 284h137z" />
    <glyph glyph-name="Ydieresis" unicode="&#x178;" horiz-adv-x="608" 
d="M264 817q0 -27 -18 -45.5t-45 -18.5q-28 0 -47 18.5t-19 45.5t19 46t47 19q27 0 45 -19t18 -46zM456 817q0 -27 -18.5 -45.5t-46.5 -18.5q-27 0 -46 18.5t-19 45.5t19.5 46t45.5 19q28 0 46.5 -19t18.5 -46zM362 260v-260h-130v265l-222 392l128 37l158 -298l165 284h137
z" />
    <glyph glyph-name="Zcaron" unicode="&#x17d;" horiz-adv-x="577" 
d="M217 903l67 -65l66 65l119 -16l-152 -148h-71l-152 148zM155 101h392l15 -101h-532l-15 101l388 477h-344l-15 102h495l15 -102z" />
    <glyph glyph-name="agrave" unicode="&#xe0;" horiz-adv-x="503" 
d="M243 378q-33 0 -73 -9.5t-68 -22.5l-35 108q26 17 83 30.5t91 13.5q58 0 106 -23t76.5 -64t28.5 -92v-319h-85l-22 52q-61 -64 -128 -64q-87 0 -131 42.5t-44 114.5q0 74 50 114.5t134 40.5h95q-1 37 -21.5 57.5t-56.5 20.5zM224 213q-32 0 -51.5 -20t-19.5 -48
q0 -22 17.5 -38t44.5 -16q58 0 107 48v74h-98zM326 614l-90 -25l-95 164h134z" />
    <glyph glyph-name="aacute" unicode="&#xe1;" horiz-adv-x="503" 
d="M243 378q-33 0 -73 -9.5t-68 -22.5l-35 108q26 17 83 30.5t91 13.5q58 0 106 -23t76.5 -64t28.5 -92v-319h-85l-22 52q-61 -64 -128 -64q-87 0 -131 42.5t-44 114.5q0 74 50 114.5t134 40.5h95q-1 37 -21.5 57.5t-56.5 20.5zM224 213q-32 0 -51.5 -20t-19.5 -48
q0 -22 17.5 -38t44.5 -16q58 0 107 48v74h-98zM359 753l-95 -164l-90 25l51 139h134z" />
    <glyph glyph-name="acircumflex" unicode="&#xe2;" horiz-adv-x="503" 
d="M243 378q-33 0 -73 -9.5t-68 -22.5l-35 108q26 17 83 30.5t91 13.5q58 0 106 -23t76.5 -64t28.5 -92v-319h-85l-22 52q-61 -64 -128 -64q-87 0 -131 42.5t-44 114.5q0 74 50 114.5t134 40.5h95q-1 37 -21.5 57.5t-56.5 20.5zM224 213q-32 0 -51.5 -20t-19.5 -48
q0 -22 17.5 -38t44.5 -16q58 0 107 48v74h-98zM316 589l-66 65l-67 -65l-123 16l152 148h71l152 -148z" />
    <glyph glyph-name="atilde" unicode="&#xe3;" horiz-adv-x="503" 
d="M243 378q-33 0 -73 -9.5t-68 -22.5l-35 108q26 17 83 30.5t91 13.5q58 0 106 -23t76.5 -64t28.5 -92v-319h-85l-22 52q-61 -64 -128 -64q-87 0 -131 42.5t-44 114.5q0 74 50 114.5t134 40.5h95q-1 37 -21.5 57.5t-56.5 20.5zM224 213q-32 0 -51.5 -20t-19.5 -48
q0 -22 17.5 -38t44.5 -16q58 0 107 48v74h-98zM305 685q11 0 19 9.5t8 21.5h81q0 -63 -31 -92t-76 -29q-20 0 -31.5 5t-23.5 14q-15 9 -24.5 13t-26.5 4q-11 0 -19.5 -10.5t-8.5 -20.5h-86q0 62 31 91t76 29q19 0 31.5 -4.5t26.5 -13.5q15 -9 26 -13t28 -4z" />
    <glyph glyph-name="adieresis" unicode="&#xe4;" horiz-adv-x="503" 
d="M243 378q-33 0 -73 -9.5t-68 -22.5l-35 108q26 17 83 30.5t91 13.5q58 0 106 -23t76.5 -64t28.5 -92v-319h-85l-22 52q-61 -64 -128 -64q-87 0 -131 42.5t-44 114.5q0 74 50 114.5t134 40.5h95q-1 37 -21.5 57.5t-56.5 20.5zM224 213q-32 0 -51.5 -20t-19.5 -48
q0 -22 17.5 -38t44.5 -16q58 0 107 48v74h-98zM212 667q0 -27 -18 -45.5t-45 -18.5q-28 0 -47 18.5t-19 45.5t19 46t47 19q27 0 45 -19t18 -46zM404 667q0 -27 -18.5 -45.5t-46.5 -18.5q-27 0 -46 18.5t-19 45.5t19.5 46t45.5 19q28 0 46.5 -19t18.5 -46z" />
    <glyph glyph-name="aring" unicode="&#xe5;" horiz-adv-x="503" 
d="M243 378q-33 0 -73 -9.5t-68 -22.5l-35 108q26 17 83 30.5t91 13.5q58 0 106 -23t76.5 -64t28.5 -92v-319h-85l-22 52q-61 -64 -128 -64q-87 0 -131 42.5t-44 114.5q0 74 50 114.5t134 40.5h95q-1 37 -21.5 57.5t-56.5 20.5zM224 213q-32 0 -51.5 -20t-19.5 -48
q0 -22 17.5 -38t44.5 -16q58 0 107 48v74h-98zM139 692q0 42 32 71.5t75 29.5t75 -29.5t32 -71.5t-31.5 -70t-75.5 -28t-75.5 28t-31.5 70zM206 692q0 -16 12 -28t28 -12t27.5 12t11.5 28t-11.5 27.5t-27.5 11.5t-28 -11.5t-12 -27.5z" />
    <glyph glyph-name="ccedilla" unicode="&#xe7;" horiz-adv-x="472" 
d="M312 -10l-8 -19q30 -12 50 -37.5t20 -51.5q0 -50 -36.5 -76.5t-89.5 -26.5q-21 0 -50.5 8t-44.5 20l30 76q14 -7 33.5 -13.5t31.5 -6.5q14 0 24 4t10 13q0 18 -25.5 29.5t-62.5 15.5l27 69q-91 17 -143.5 82.5t-52.5 165.5q0 77 31.5 135t90 89.5t136.5 31.5q34 0 84 -14
t84 -37l-37 -93q-38 17 -68 25t-62 8q-54 0 -89.5 -41t-35.5 -104t35 -103t90 -40q32 0 62 8t68 25l37 -94q-25 -19 -63.5 -31.5t-75.5 -16.5z" />
    <glyph glyph-name="egrave" unicode="&#xe8;" horiz-adv-x="515" 
d="M269 498q73 0 123 -34t74 -91.5t24 -128.5v-40h-327q10 -51 43.5 -78t102.5 -27q40 0 72 11t69 32l38 -94q-37 -29 -80 -44.5t-102 -15.5q-138 0 -209.5 67.5t-71.5 186.5q0 77 29.5 135t84.5 89.5t130 31.5zM266 387q-40 0 -67 -24.5t-35 -71.5h203q-10 48 -35.5 72
t-65.5 24zM338 614l-90 -25l-95 164h134z" />
    <glyph glyph-name="eacute" unicode="&#xe9;" horiz-adv-x="515" 
d="M269 498q73 0 123 -34t74 -91.5t24 -128.5v-40h-327q10 -51 43.5 -78t102.5 -27q40 0 72 11t69 32l38 -94q-37 -29 -80 -44.5t-102 -15.5q-138 0 -209.5 67.5t-71.5 186.5q0 77 29.5 135t84.5 89.5t130 31.5zM266 387q-40 0 -67 -24.5t-35 -71.5h203q-10 48 -35.5 72
t-65.5 24zM371 753l-95 -164l-90 25l51 139h134z" />
    <glyph glyph-name="ecircumflex" unicode="&#xea;" horiz-adv-x="515" 
d="M269 498q73 0 123 -34t74 -91.5t24 -128.5v-40h-327q10 -51 43.5 -78t102.5 -27q40 0 72 11t69 32l38 -94q-37 -29 -80 -44.5t-102 -15.5q-138 0 -209.5 67.5t-71.5 186.5q0 77 29.5 135t84.5 89.5t130 31.5zM266 387q-40 0 -67 -24.5t-35 -71.5h203q-10 48 -35.5 72
t-65.5 24zM328 589l-66 65l-67 -65l-123 16l152 148h71l152 -148z" />
    <glyph glyph-name="edieresis" unicode="&#xeb;" horiz-adv-x="515" 
d="M269 498q73 0 123 -34t74 -91.5t24 -128.5v-40h-327q10 -51 43.5 -78t102.5 -27q40 0 72 11t69 32l38 -94q-37 -29 -80 -44.5t-102 -15.5q-138 0 -209.5 67.5t-71.5 186.5q0 77 29.5 135t84.5 89.5t130 31.5zM266 387q-40 0 -67 -24.5t-35 -71.5h203q-10 48 -35.5 72
t-65.5 24zM224 667q0 -27 -18 -45.5t-45 -18.5q-28 0 -47 18.5t-19 45.5t19 46t47 19q27 0 45 -19t18 -46zM416 667q0 -27 -18.5 -45.5t-46.5 -18.5q-27 0 -46 18.5t-19 45.5t19.5 46t45.5 19q28 0 46.5 -19t18.5 -46z" />
    <glyph glyph-name="igrave" unicode="&#xec;" horiz-adv-x="240" 
d="M185 485v-485h-130v485h130zM194 614l-90 -25l-95 164h134z" />
    <glyph glyph-name="iacute" unicode="&#xed;" horiz-adv-x="240" 
d="M185 485v-485h-130v485h130zM224 753l-95 -164l-90 25l51 139h134z" />
    <glyph glyph-name="icircumflex" unicode="&#xee;" horiz-adv-x="240" 
d="M185 485v-485h-130v485h130zM184 589l-66 65l-67 -65l-123 16l152 148h71l152 -148z" />
    <glyph glyph-name="idieresis" unicode="&#xef;" horiz-adv-x="240" 
d="M185 485v-485h-130v485h130zM80 667q0 -27 -18 -45.5t-45 -18.5q-28 0 -47 18.5t-19 45.5t19 46t47 19q27 0 45 -19t18 -46zM272 667q0 -27 -18.5 -45.5t-46.5 -18.5q-27 0 -46 18.5t-19 45.5t19.5 46t45.5 19q28 0 46.5 -19t18.5 -46z" />
    <glyph glyph-name="ntilde" unicode="&#xf1;" horiz-adv-x="566" 
d="M315 393q-34 0 -64 -15.5t-66 -41.5v-336h-130v485h85l22 -52q45 32 96 50t91 18q92 0 129 -52t37 -145v-304h-130v298q0 45 -18.5 70t-51.5 25zM346 685q11 0 19 9.5t8 21.5h81q0 -63 -31 -92t-76 -29q-20 0 -31.5 5t-23.5 14q-15 9 -24.5 13t-26.5 4q-11 0 -19.5 -10.5
t-8.5 -20.5h-86q0 62 31 91t76 29q19 0 31.5 -4.5t26.5 -13.5q15 -9 26 -13t28 -4z" />
    <glyph glyph-name="ograve" unicode="&#xf2;" 
d="M284 -12q-78 0 -136.5 31t-90.5 88.5t-32 134.5t32 135t90.5 89.5t136.5 31.5t136.5 -31t90.5 -88.5t32 -134.5t-32 -135t-90.5 -89.5t-136.5 -31.5zM409 244q0 63 -35 103t-90 40q-54 0 -89.5 -41t-35.5 -104t35 -103t90 -40q54 0 89.5 41t35.5 104zM354 614l-90 -25
l-95 164h134z" />
    <glyph glyph-name="oacute" unicode="&#xf3;" 
d="M284 -12q-78 0 -136.5 31t-90.5 88.5t-32 134.5t32 135t90.5 89.5t136.5 31.5t136.5 -31t90.5 -88.5t32 -134.5t-32 -135t-90.5 -89.5t-136.5 -31.5zM409 244q0 63 -35 103t-90 40q-54 0 -89.5 -41t-35.5 -104t35 -103t90 -40q54 0 89.5 41t35.5 104zM387 753l-95 -164
l-90 25l51 139h134z" />
    <glyph glyph-name="ocircumflex" unicode="&#xf4;" 
d="M284 -12q-78 0 -136.5 31t-90.5 88.5t-32 134.5t32 135t90.5 89.5t136.5 31.5t136.5 -31t90.5 -88.5t32 -134.5t-32 -135t-90.5 -89.5t-136.5 -31.5zM409 244q0 63 -35 103t-90 40q-54 0 -89.5 -41t-35.5 -104t35 -103t90 -40q54 0 89.5 41t35.5 104zM344 589l-66 65
l-67 -65l-123 16l152 148h71l152 -148z" />
    <glyph glyph-name="otilde" unicode="&#xf5;" 
d="M284 -12q-78 0 -136.5 31t-90.5 88.5t-32 134.5t32 135t90.5 89.5t136.5 31.5t136.5 -31t90.5 -88.5t32 -134.5t-32 -135t-90.5 -89.5t-136.5 -31.5zM409 244q0 63 -35 103t-90 40q-54 0 -89.5 -41t-35.5 -104t35 -103t90 -40q54 0 89.5 41t35.5 104zM333 685
q11 0 19 9.5t8 21.5h81q0 -63 -31 -92t-76 -29q-20 0 -31.5 5t-23.5 14q-15 9 -24.5 13t-26.5 4q-11 0 -19.5 -10.5t-8.5 -20.5h-86q0 62 31 91t76 29q19 0 31.5 -4.5t26.5 -13.5q15 -9 26 -13t28 -4z" />
    <glyph glyph-name="odieresis" unicode="&#xf6;" 
d="M284 -12q-78 0 -136.5 31t-90.5 88.5t-32 134.5t32 135t90.5 89.5t136.5 31.5t136.5 -31t90.5 -88.5t32 -134.5t-32 -135t-90.5 -89.5t-136.5 -31.5zM409 244q0 63 -35 103t-90 40q-54 0 -89.5 -41t-35.5 -104t35 -103t90 -40q54 0 89.5 41t35.5 104zM240 667
q0 -27 -18 -45.5t-45 -18.5q-28 0 -47 18.5t-19 45.5t19 46t47 19q27 0 45 -19t18 -46zM432 667q0 -27 -18.5 -45.5t-46.5 -18.5q-27 0 -46 18.5t-19 45.5t19.5 46t45.5 19q28 0 46.5 -19t18.5 -46z" />
    <glyph glyph-name="scaron" unicode="&#x161;" horiz-adv-x="422" 
d="M195 -12q-37 0 -87 13t-81 37l39 88q74 -33 127 -33q30 0 55 11t25 31q0 39 -85 65q-69 23 -115 59t-46 91q0 69 51 108.5t138 39.5q34 0 83 -14t83 -37l-39 -87q-38 17 -67.5 25t-61.5 8q-25 0 -41.5 -12.5t-16.5 -29.5q0 -13 19.5 -23.5t56.5 -23.5q71 -26 118 -66
t47 -98q0 -73 -52 -112.5t-150 -39.5zM153 753l67 -65l66 65l119 -16l-152 -148h-71l-152 148z" />
    <glyph glyph-name="ugrave" unicode="&#xf9;" horiz-adv-x="566" 
d="M251 92q34 0 64 15.5t66 41.5v336h130v-485h-85l-22 52q-45 -32 -96 -50t-91 -18q-92 0 -129 52t-37 145v304h130v-298q0 -45 18.5 -70t51.5 -25zM358 614l-90 -25l-95 164h134z" />
    <glyph glyph-name="uacute" unicode="&#xfa;" horiz-adv-x="566" 
d="M251 92q34 0 64 15.5t66 41.5v336h130v-485h-85l-22 52q-45 -32 -96 -50t-91 -18q-92 0 -129 52t-37 145v304h130v-298q0 -45 18.5 -70t51.5 -25zM391 753l-95 -164l-90 25l51 139h134z" />
    <glyph glyph-name="ucircumflex" unicode="&#xfb;" horiz-adv-x="566" 
d="M251 92q34 0 64 15.5t66 41.5v336h130v-485h-85l-22 52q-45 -32 -96 -50t-91 -18q-92 0 -129 52t-37 145v304h130v-298q0 -45 18.5 -70t51.5 -25zM348 589l-66 65l-67 -65l-123 16l152 148h71l152 -148z" />
    <glyph glyph-name="udieresis" unicode="&#xfc;" horiz-adv-x="566" 
d="M251 92q34 0 64 15.5t66 41.5v336h130v-485h-85l-22 52q-45 -32 -96 -50t-91 -18q-92 0 -129 52t-37 145v304h130v-298q0 -45 18.5 -70t51.5 -25zM244 667q0 -27 -18 -45.5t-45 -18.5q-28 0 -47 18.5t-19 45.5t19 46t47 19q27 0 45 -19t18 -46zM436 667
q0 -27 -18.5 -45.5t-46.5 -18.5q-27 0 -46 18.5t-19 45.5t19.5 46t45.5 19q28 0 46.5 -19t18.5 -46z" />
    <glyph glyph-name="yacute" unicode="&#xfd;" horiz-adv-x="503" 
d="M492 485l-190 -483v-232h-113v230l-179 465l127 38l112 -312l106 294h137zM351 754l-95 -164l-90 25l51 139h134z" />
    <glyph glyph-name="ydieresis" unicode="&#xff;" horiz-adv-x="503" 
d="M492 485l-190 -483v-232h-113v230l-179 465l127 38l112 -312l106 294h137zM204 668q0 -27 -18 -45.5t-45 -18.5q-28 0 -47 18.5t-19 45.5t19 46t47 19q27 0 45 -19t18 -46zM396 668q0 -27 -18.5 -45.5t-46.5 -18.5q-27 0 -46 18.5t-19 45.5t19.5 46t45.5 19
q28 0 46.5 -19t18.5 -46z" />
    <glyph glyph-name="zcaron" unicode="&#x17e;" horiz-adv-x="443" 
d="M25 485h388l7 -74l-244 -306h244l10 -105h-400l-17 69l241 309h-204zM150 753l67 -65l66 65l119 -16l-152 -148h-71l-152 148z" />
    <glyph glyph-name="mu" unicode="&#xb5;" horiz-adv-x="576" 
d="M521 0h-85l-22 52q-45 -32 -96 -50t-91 -18q-14 0 -36 2v-195l-130 -10v704h130v-298q0 -45 18.5 -70t51.5 -25q34 0 64 15.5t66 41.5v336h130v-485z" />
    <glyph glyph-name="cent" unicode="&#xa2;" horiz-adv-x="472" 
d="M359 -2v-113h-130v107q-95 16 -149.5 82t-54.5 168t54 168.5t148 82.5v105l130 13v-124q60 -16 94 -40l-37 -93q-38 17 -68 25t-62 8q-54 0 -89.5 -41t-35.5 -104t35 -103t90 -40q32 0 62 8t68 25l37 -94q-32 -26 -92 -40z" />
    <glyph glyph-name="sterling" unicode="&#xa3;" horiz-adv-x="506" 
d="M496 0h-439l-10 101q42 1 57.5 22.5t15.5 63.5v104h-75v99h75v113q0 84 50 132.5t140 48.5q25 0 54 -9t44 -23l-38 -92q-28 12 -54 12q-34 0 -49.5 -23.5t-15.5 -62.5v-96h118l43 -99h-161v-91q0 -61 -21 -99h246z" />
    <glyph glyph-name="currency" unicode="&#xa4;" horiz-adv-x="701" 
d="M612 243q-1 -78 -37 -135l96 -97l-80 -96l-106 106q-60 -33 -132 -34q-71 1 -137 36l-106 -108l-80 96l98 100q-34 60 -34 130q0 36 9.5 70t25.5 61l-99 101l80 96l106 -107q66 35 137 36q70 -1 132 -35l106 106l80 -96l-96 -97q35 -57 37 -133zM351 111q33 0 62 17.5
t47 48t18 65.5q0 36 -18 65.5t-47 47t-62 17.5q-32 0 -60 -17.5t-45.5 -47.5t-17.5 -65t17.5 -65t45.5 -48t60 -18z" />
    <glyph glyph-name="yen" unicode="&#xa5;" horiz-adv-x="608" 
d="M362 162h160l10 -96h-170v-66h-130v66h-146l-11 96h157v56h-146l-11 96h129l-194 343l128 37l158 -298l165 284h137l-206 -366h130l10 -96h-170v-56z" />
    <glyph glyph-name="Euro" unicode="&#x20ac;" horiz-adv-x="622" 
d="M416 -14q-116 0 -194 58t-109 158h-101l-12 96h95q-2 26 -2 39q0 14 2 42h-83l-12 96h114q34 102 114.5 160.5t192.5 58.5q36 0 88 -11t92 -33l-40 -93l-25 7q-39 12 -62 16.5t-57 4.5q-53 0 -95 -29t-67 -81h191l10 -96h-226q-2 -26 -2 -41q0 -14 2 -40h216l10 -96h-201
q23 -50 62.5 -78.5t91.5 -28.5q74 0 149 31l49 -96q-38 -20 -92.5 -32t-98.5 -12z" />
    <glyph glyph-name="dollar" unicode="$" horiz-adv-x="527" 
d="M461 645l-43 -104q-41 20 -74.5 31t-72.5 11q-45 0 -73.5 -17.5t-28.5 -51.5q0 -29 22.5 -48.5t73.5 -49.5l32 -18l29 -17q59 -34 94 -59.5t58.5 -62t23.5 -85.5q0 -56 -32 -99.5t-91 -66.5v-136h-89v117q-26 -2 -42 -2h-15v-115h-88v133q-64 19 -98 40l29 105
q37 -19 84 -33.5t86 -14.5q60 0 91 19t31 55q0 25 -24.5 45.5t-75.5 48.5l-30 18q-67 40 -106.5 69t-68 68.5t-28.5 88.5q0 55 31 98.5t89 64.5v117l88 14v-113l26 1q11 0 31 -2v100l89 14v-134q31 -10 72 -29z" />
    <glyph glyph-name="comma" unicode="," horiz-adv-x="211" 
d="M33 72q0 28 21.5 51t50.5 23q31 0 53.5 -25.5t22.5 -64.5q0 -56 -38 -117t-94 -93l-29 62q32 27 47 45t21 47q-18 0 -36.5 23t-18.5 49z" />
    <glyph glyph-name="period" unicode="." horiz-adv-x="206" 
d="M176 73q0 -31 -20.5 -52t-51.5 -21t-52.5 21t-21.5 52t21.5 52t52.5 21t51.5 -21t20.5 -52z" />
    <glyph glyph-name="exclam" unicode="!" horiz-adv-x="207" 
d="M156 196l-104 48l-17 458h136zM30 73q0 31 21.5 52t51.5 21q31 0 52.5 -21t21.5 -52t-21.5 -52t-52.5 -21q-30 0 -51.5 21t-21.5 52z" />
    <glyph glyph-name="exclamdown" unicode="&#xa1;" horiz-adv-x="207" 
d="M177 629q0 -31 -21.5 -52.5t-52.5 -21.5q-30 0 -51.5 21.5t-21.5 52.5q0 30 21.5 51.5t51.5 21.5q31 0 52.5 -21.5t21.5 -51.5zM51 505l105 -47l14 -458h-135z" />
    <glyph glyph-name="colon" unicode=":" horiz-adv-x="206" 
d="M176 401q0 -31 -20.5 -52.5t-51.5 -21.5t-52.5 21.5t-21.5 52.5q0 30 21.5 51.5t52.5 21.5q30 0 51 -21.5t21 -51.5zM176 73q0 -31 -20.5 -52t-51.5 -21t-52.5 21t-21.5 52t21.5 52t52.5 21t51.5 -21t20.5 -52z" />
    <glyph glyph-name="semicolon" unicode=";" horiz-adv-x="212" 
d="M34 401q0 30 22 51.5t53 21.5t52 -21.5t21 -51.5q0 -31 -21 -52.5t-52 -21.5t-53 21.5t-22 52.5zM33 72q0 28 21.5 51t50.5 23q31 0 53.5 -25.5t22.5 -64.5q0 -56 -38 -117t-94 -93l-29 62q32 27 47 45t21 47q-18 0 -36.5 23t-18.5 49z" />
    <glyph glyph-name="question" unicode="?" horiz-adv-x="435" 
d="M10 645q45 29 92.5 42.5t101.5 13.5q97 0 149 -48.5t52 -130.5q0 -53 -47 -111t-118 -95l-17 -137l-92 39l-8 165q73 24 118 60.5t45 76.5q0 33 -24 53t-61 20q-34 0 -80.5 -16t-93.5 -48zM96 73q0 31 21.5 52t52.5 21t52 -21t21 -52t-21 -52t-52 -21t-52.5 21t-21.5 52z
" />
    <glyph glyph-name="questiondown" unicode="&#xbf;" horiz-adv-x="434" 
d="M338 591q0 -31 -21.5 -52.5t-52.5 -21.5t-52 21.5t-21 52.5q0 30 21 51.5t52 21.5t52.5 -21.5t21.5 -51.5zM424 19q-45 -29 -92.5 -42.5t-102.5 -13.5q-96 0 -147.5 49t-51.5 130q0 53 46.5 110.5t117.5 96.5l17 136l92 -38l9 -165q-74 -24 -119 -61t-45 -78
q0 -32 24 -52t61 -20q36 0 81.5 15.5t92.5 49.5z" />
    <glyph glyph-name="asterisk" unicode="*" horiz-adv-x="388" 
d="M143 767h102l1 -99l102 22l30 -91l-101 -20l69 -98l-78 -61l-74 99l-73 -99l-79 61l69 97l-101 21l30 91l101 -22z" />
    <glyph glyph-name="quotedbl" unicode="&#x22;" horiz-adv-x="394" 
d="M31 668q0 27 21.5 50.5t51.5 23.5q32 0 54 -25t22 -64q0 -57 -37.5 -117.5t-94.5 -92.5l-28 61q32 28 46.5 46t20.5 47q-18 0 -37 22.5t-19 48.5zM216 668q0 27 22 50.5t52 23.5q31 0 52.5 -25t21.5 -64q0 -57 -37.5 -117.5t-93.5 -92.5l-29 61q33 29 47.5 46.5
t20.5 46.5q-19 0 -37.5 22.5t-18.5 48.5z" />
    <glyph glyph-name="quotesingle" unicode="'" horiz-adv-x="210" 
d="M31 668q0 27 21.5 50.5t51.5 23.5q32 0 54 -25t22 -64q0 -57 -37.5 -117.5t-94.5 -92.5l-28 61q32 28 46.5 46t20.5 47q-18 0 -37 22.5t-19 48.5z" />
    <glyph glyph-name="quoteleft" unicode="&#x2018;" horiz-adv-x="211" 
d="M168 517q0 -27 -21.5 -50.5t-51.5 -23.5q-31 0 -53 25.5t-22 64.5q0 57 38 118t94 91l29 -60q-32 -27 -47 -45t-21 -48q18 0 36.5 -22.5t18.5 -49.5z" />
    <glyph glyph-name="quoteright" unicode="&#x2019;" horiz-adv-x="210" 
d="M31 668q0 27 21.5 50.5t51.5 23.5q32 0 54 -25t22 -64q0 -57 -37.5 -117.5t-94.5 -92.5l-28 61q32 28 46.5 46t20.5 47q-18 0 -37 22.5t-19 48.5z" />
    <glyph glyph-name="quotesinglbase" unicode="&#x201a;" horiz-adv-x="210" 
d="M31 72q0 28 21.5 51t51.5 23q31 0 53.5 -25.5t22.5 -64.5q0 -56 -38 -117t-94 -93l-28 62q32 29 46.5 46t20.5 46q-18 0 -37 23t-19 49z" />
    <glyph glyph-name="quotedblleft" unicode="&#x201c;" horiz-adv-x="396" 
d="M178 517q0 -27 -21.5 -50.5t-51.5 -23.5q-31 0 -53 25.5t-22 64.5q0 57 38 118t94 91l29 -60q-32 -27 -47 -45t-21 -48q18 0 36.5 -22.5t18.5 -49.5zM364 517q0 -27 -22 -50.5t-52 -23.5q-31 0 -53 25.5t-22 64.5q0 57 37.5 118t93.5 91l30 -60q-32 -27 -47 -45t-21 -48
q11 0 24 -10.5t22.5 -27.5t9.5 -34z" />
    <glyph glyph-name="quotedblright" unicode="&#x201d;" horiz-adv-x="394" 
d="M31 668q0 27 21.5 50.5t51.5 23.5q32 0 54 -25t22 -64q0 -57 -37.5 -117.5t-94.5 -92.5l-28 61q32 28 46.5 46t20.5 47q-18 0 -37 22.5t-19 48.5zM216 668q0 27 22 50.5t52 23.5q31 0 52.5 -25t21.5 -64q0 -57 -37.5 -117.5t-93.5 -92.5l-29 61q33 29 47.5 46.5
t20.5 46.5q-19 0 -37.5 22.5t-18.5 48.5z" />
    <glyph glyph-name="quotedblbase" unicode="&#x201e;" horiz-adv-x="394" 
d="M31 72q0 28 21.5 51t51.5 23q31 0 53.5 -25.5t22.5 -64.5q0 -56 -38 -117t-94 -93l-28 62q32 29 46.5 46t20.5 46q-18 0 -37 23t-19 49zM216 72q0 28 22 51t52 23q31 0 52.5 -25.5t21.5 -64.5q0 -56 -37.5 -117t-93.5 -93l-29 62q34 29 48 46t20 46q-19 0 -37.5 23
t-18.5 49z" />
    <glyph glyph-name="parenleft" unicode="(" horiz-adv-x="308" 
d="M170 322q0 -77 32 -174t75 -149l-100 -38q-61 80 -94 171.5t-33 188.5q0 94 32 182.5t95 178.5l101 -37q-44 -61 -76 -155t-32 -168z" />
    <glyph glyph-name="parenright" unicode=")" horiz-adv-x="308" 
d="M136 321q0 77 -31.5 174.5t-73.5 147.5l100 39q60 -81 93.5 -173t33.5 -188q0 -93 -32.5 -181t-95.5 -179l-100 37q43 60 74.5 154.5t31.5 168.5z" />
    <glyph glyph-name="bracketleft" unicode="[" horiz-adv-x="362" 
d="M352 -88h-252v784h252l-20 -102h-103v-581h103z" />
    <glyph glyph-name="bracketright" unicode="]" horiz-adv-x="362" 
d="M10 696h252v-784h-252l18 101h103v581h-103z" />
    <glyph glyph-name="braceleft" unicode="{" horiz-adv-x="294" 
d="M226 408q0 -34 -8.5 -58t-26.5 -41q35 -35 35 -100q0 -17 -4.5 -31t-13.5 -32q-9 -20 -13 -32.5t-4 -28.5q0 -10 10.5 -18.5t27.5 -8.5h42l13 -100h-58q-72 0 -107 34t-35 93q0 18 8 42.5t9 29.5q6 18 11 35.5t5 28.5q0 19 -12.5 31.5t-29.5 12.5h-45v86h45
q17 0 29.5 12.5t12.5 31.5q0 15 -14 53q-19 59 -19 85q0 59 35 92.5t107 33.5h58l-13 -100h-42q-17 0 -27.5 -8.5t-10.5 -18.5q0 -16 4 -28.5t13 -28.5q9 -18 13.5 -32.5t4.5 -34.5z" />
    <glyph glyph-name="braceright" unicode="}" horiz-adv-x="292" 
d="M66 209q0 65 35 100q-18 17 -26.5 41t-8.5 58q0 20 4.5 34.5t13.5 32.5q9 16 13 28.5t4 28.5q0 10 -10.5 18.5t-27.5 8.5h-42l-13 100h58q72 0 107 -33.5t35 -92.5q0 -26 -19 -85q-14 -38 -14 -53q0 -19 12.5 -31.5t29.5 -12.5h45v-86h-45q-17 0 -29.5 -12.5t-12.5 -31.5
q0 -11 5 -28.5t11 -35.5q1 -5 9 -29.5t8 -42.5q0 -59 -35 -93t-107 -34h-58l13 100h42q17 0 27.5 8.5t10.5 18.5q0 16 -4 28.5t-13 32.5q-9 18 -13.5 32t-4.5 31z" />
    <glyph glyph-name="slash" unicode="/" horiz-adv-x="454" 
d="M10 0l298 710l136 -4l-299 -710z" />
    <glyph glyph-name="backslash" unicode="\" horiz-adv-x="454" 
d="M145 710l299 -710l-136 -4l-298 710z" />
    <glyph glyph-name="bar" unicode="|" horiz-adv-x="299" 
d="M85 0v713l129 -10v-713z" />
    <glyph glyph-name="brokenbar" unicode="&#xa6;" horiz-adv-x="299" 
d="M85 417v296l129 -10v-297zM85 0v297l129 -9v-298z" />
    <glyph glyph-name="guillemotleft" unicode="&#xab;" horiz-adv-x="401" 
d="M190 83l-160 138v48l160 139l23 -87l-85 -76l85 -76zM360 83l-161 138v48l161 139l21 -87l-84 -76l84 -76z" />
    <glyph glyph-name="guillemotright" unicode="&#xbb;" horiz-adv-x="403" 
d="M43 408l159 -139v-48l-159 -138l-23 86l85 76l-85 76zM212 408l161 -139v-48l-161 -138l-22 86l85 76l-85 76z" />
    <glyph glyph-name="dagger" unicode="&#x2020;" horiz-adv-x="446" 
d="M155 625v158l140 -3v-155h103l18 -122h-121l-11 -507l-119 4l-10 503h-106l-19 122h125z" />
    <glyph glyph-name="daggerdbl" unicode="&#x2021;" horiz-adv-x="459" 
d="M300 154l5 -153l-152 -7l5 160h-109l-19 122h125l3 227h-109l-19 122h130l-5 158l152 -3l-4 -155h108l18 -122h-126v-227h108l18 -122h-129z" />
    <glyph glyph-name="bullet" unicode="&#x2022;" horiz-adv-x="277" 
d="M247 330q0 -45 -32 -76t-77 -31t-76.5 31t-31.5 76q0 44 31.5 76t76.5 32t77 -32t32 -76z" />
    <glyph glyph-name="ellipsis" unicode="&#x2026;" horiz-adv-x="539" 
d="M165 66q0 -28 -19.5 -47t-47.5 -19t-48 19t-20 47t20 48t48 20t47.5 -20t19.5 -48zM338 66q0 -28 -19.5 -47t-46.5 -19q-29 0 -48.5 19t-19.5 47t19.5 48t48.5 20q27 0 46.5 -20t19.5 -48zM509 66q0 -28 -19.5 -47t-47.5 -19q-27 0 -46.5 19t-19.5 47t19.5 48t46.5 20
q28 0 47.5 -20t19.5 -48z" />
    <glyph glyph-name="guilsinglleft" unicode="&#x2039;" horiz-adv-x="233" 
d="M190 83l-160 138v48l160 139l23 -92l-81 -71l81 -71z" />
    <glyph glyph-name="guilsinglright" unicode="&#x203a;" horiz-adv-x="232" 
d="M42 408l160 -139v-48l-160 -138l-22 91l78 71l-78 71z" />
    <glyph glyph-name="hyphen" unicode="-" horiz-adv-x="332" 
d="M30 325h262l10 -102h-261z" />
    <glyph glyph-name="underscore" unicode="_" horiz-adv-x="442" 
d="M30 101h372l10 -101h-371z" />
    <glyph glyph-name="endash" unicode="&#x2013;" horiz-adv-x="442" 
d="M30 325h372l10 -102h-371z" />
    <glyph glyph-name="emdash" unicode="&#x2014;" horiz-adv-x="549" 
d="M30 325h480l9 -102h-478z" />
    <glyph glyph-name="numbersign" unicode="#" horiz-adv-x="584" 
d="M387 408l25 112l112 -3l-24 -109h44l10 -97h-76l-26 -112h92l10 -96h-124l-26 -118l-111 5l25 113h-120l-27 -118l-110 5l25 113h-45l-11 96h78l25 112h-92l-11 97h126l26 112l111 -3l-26 -109h120zM339 199l26 112h-119l-25 -112h118z" />
    <glyph glyph-name="percent" unicode="%" horiz-adv-x="932" 
d="M249 0l298 710l131 -4l-298 -710zM191 363q-43 0 -81 20.5t-61.5 59.5t-23.5 90q0 50 23.5 88.5t61.5 59.5t81 21t81.5 -20.5t61.5 -59t23 -89.5q0 -50 -23.5 -89t-61.5 -60t-81 -21zM191 608q-23 0 -40 -20t-17 -54q0 -38 15.5 -58t41.5 -20q23 0 40.5 20.5t17.5 55.5
q0 36 -16.5 56t-41.5 20zM743 0q-43 0 -81 20.5t-61.5 59t-23.5 89.5t23.5 89.5t61.5 59t81 20.5t80.5 -20t60.5 -58t23 -90q0 -50 -23 -89t-61 -60t-80 -21zM743 245q-23 0 -40.5 -20t-17.5 -54q0 -38 16 -58.5t42 -20.5q23 0 40 21t17 56t-16.5 55.5t-40.5 20.5z" />
    <glyph glyph-name="plus" unicode="+" horiz-adv-x="538" 
d="M335 324h163l10 -99h-173v-221l-122 4v217h-175l-8 99h183v210l122 -3v-207z" />
    <glyph glyph-name="divide" unicode="&#xf7;" horiz-adv-x="509" 
d="M331 436q0 -31 -23 -53.5t-55 -22.5t-54.5 22.5t-22.5 53.5q0 33 22.5 55.5t54.5 22.5t55 -22.5t23 -55.5zM30 325h438l11 -102h-440zM331 101q0 -31 -23 -54t-55 -23t-54.5 23t-22.5 54q0 33 22.5 55.5t54.5 22.5t55 -22.5t23 -55.5z" />
    <glyph glyph-name="multiply" unicode="&#xd7;" horiz-adv-x="569" 
d="M390 29l-107 137l-119 -137h-134l193 228l-177 227h133l107 -137l119 137h134l-193 -228l177 -227h-133z" />
    <glyph glyph-name="plusminus" unicode="&#xb1;" horiz-adv-x="469" 
d="M293 387h137l9 -89h-146v-158l-111 5v153h-142l-10 89h152v147l111 -3v-144zM33 90h402l4 -90h-399z" />
    <glyph glyph-name="less" unicode="&#x3c;" horiz-adv-x="348" 
d="M160 245l168 -118l-23 -108l-275 197v58l275 196l23 -107z" />
    <glyph glyph-name="equal" unicode="=" horiz-adv-x="516" 
d="M30 408h447l9 -97h-445zM30 199h447l9 -96h-445z" />
    <glyph glyph-name="greater" unicode="&#x3e;" horiz-adv-x="348" 
d="M43 470l275 -196v-58l-275 -197l-23 108l168 118l-168 118z" />
    <glyph glyph-name="degree" unicode="&#xb0;" horiz-adv-x="259" 
d="M10 610q0 47 35.5 80.5t84.5 33.5q31 0 58.5 -15.5t44 -41.5t16.5 -57q0 -48 -35.5 -80.5t-83.5 -32.5q-49 0 -84.5 32.5t-35.5 80.5zM130 568q16 0 27.5 12t11.5 27q0 16 -11.5 28.5t-27.5 12.5q-15 0 -27 -11.5t-12 -26.5q0 -16 12 -29t27 -13z" />
    <glyph glyph-name="onesuperior" unicode="&#xb9;" horiz-adv-x="309" 
d="M244 763v-426h-118v306l-70 -32l-46 83l157 69h77z" />
    <glyph glyph-name="twosuperior" unicode="&#xb2;" horiz-adv-x="372" 
d="M13 728q76 43 162 43q54 0 91 -20t55.5 -51t18.5 -64q0 -44 -24 -81.5t-80 -84.5l-53 -43h155l14 -90h-327v82l137 112q30 25 43.5 48.5t13.5 56.5q0 16 -14 27.5t-37 11.5q-51 0 -111 -31l-44 84v0z" />
    <glyph glyph-name="threesuperior" unicode="&#xb3;" horiz-adv-x="371" 
d="M15 717q40 26 78 40t81 14q77 0 118 -37.5t41 -94.5q0 -32 -19.5 -60.5t-42.5 -38.5q15 -4 31.5 -19.5t27.5 -40t11 -53.5q0 -42 -22 -75.5t-62 -53t-93 -19.5q-43 0 -87 12t-77 35l50 83q33 -20 53.5 -27.5t46.5 -7.5q32 0 51 15t19 37q0 33 -21 50t-61 17h-31l-13 90
h49q69 0 69 55q0 36 -56 36q-29 0 -50 -9.5t-44 -28.5l-47 81v0z" />
    <glyph glyph-name="onequarter" unicode="&#xbc;" horiz-adv-x="917" 
d="M167 763h77v-426h-118v306l-70 -32l-46 83zM175 -134h-140l586 834h141zM897 15l-11 -96h-80v-84h-119v84h-198l-12 96l247 307h82v-307h91zM598 15h89v107z" />
    <glyph glyph-name="onehalf" unicode="&#xbd;" horiz-adv-x="927" 
d="M244 763v-426h-118v306l-70 -32l-46 83l157 69h77zM35 -134l586 834h141l-587 -834h-140zM568 281q76 43 162 43q54 0 91 -20t55.5 -51t18.5 -64q0 -44 -24 -81.5t-80 -84.5l-53 -43h155l14 -90h-327v82l137 112q32 27 44.5 46t12.5 51q0 17 -14.5 32t-36.5 15
q-51 0 -111 -31z" />
    <glyph glyph-name="threequarters" unicode="&#xbe;" horiz-adv-x="901" 
d="M15 717q40 26 78 40t81 14q77 0 118 -37.5t41 -94.5q0 -32 -19.5 -60.5t-42.5 -38.5q15 -4 31.5 -19.5t27.5 -40t11 -53.5q0 -42 -22 -75.5t-62 -53t-93 -19.5q-43 0 -87 12t-77 35l50 83q33 -20 53.5 -27.5t46.5 -7.5q32 0 51 15t19 37q0 33 -21 50t-61 17h-31l-13 90
h49q69 0 69 55q0 36 -56 36q-29 0 -50 -9.5t-44 -28.5zM74 -134l586 834h141l-587 -834h-140zM709 322h82v-307h90l-10 -96h-80v-84h-119v84h-198l-13 96zM672 122l-91 -107h91v107z" />
    <glyph glyph-name="minus" unicode="&#x2212;" horiz-adv-x="479" 
d="M30 325h407l12 -102h-410z" />
    <glyph glyph-name="perthousand" unicode="&#x2030;" horiz-adv-x="1318" 
d="M251 0l297 710l132 -4l-298 -710zM25 533q0 50 23.5 88.5t61.5 59.5t81 21t81.5 -20.5t61.5 -59t23 -89.5q0 -50 -23.5 -89t-61.5 -60t-81 -21t-81 20.5t-61.5 59.5t-23.5 90zM249 532q0 36 -16.5 56t-41.5 20q-23 0 -40 -20t-17 -54q0 -38 15.5 -58t41.5 -20
q23 0 40.5 20.5t17.5 55.5zM577 169q0 51 23.5 89.5t61.5 59t81 20.5t80.5 -20t60.5 -58t23 -90q0 -50 -23 -89t-61 -60t-80 -21q-43 0 -81 20.5t-61.5 59t-23.5 89.5zM961 169q0 51 23.5 89.5t62 59t81.5 20.5t80.5 -20t61 -58t23.5 -90q0 -50 -24 -88.5t-62 -60t-79 -21.5
q-43 0 -81.5 20.5t-62 59t-23.5 89.5zM800 169q0 35 -16.5 55.5t-40.5 20.5q-23 0 -40.5 -20t-17.5 -54q0 -38 16 -58.5t42 -20.5q23 0 40 21t17 56zM1184 169q0 36 -16 56t-40 20q-23 0 -41 -20t-18 -54q0 -39 16 -59t43 -20q23 0 39.5 21t16.5 56z" />
    <glyph glyph-name="fraction" unicode="&#x2044;" horiz-adv-x="454" 
d="M10 0l298 710l136 -4l-299 -710z" />
    <glyph glyph-name="copyright" unicode="&#xa9;" horiz-adv-x="823" 
d="M411 719q116 0 203.5 -50.5t135.5 -138t48 -194.5q0 -106 -48 -193.5t-135.5 -138t-203.5 -50.5t-203.5 50.5t-135 138t-47.5 193.5q0 107 47.5 194.5t135 138t203.5 50.5zM411 645q-91 0 -160 -40t-106 -110t-37 -158t37 -158t106 -110t160 -40q92 0 160.5 40t105.5 110
t37 158t-37 158t-105.5 110t-160.5 40zM579 148q-28 -22 -72 -34t-77 -12q-107 0 -169 63.5t-62 171.5q0 70 30 123t82.5 82t118.5 29q31 0 74.5 -12.5t74.5 -32.5l-35 -98q-35 17 -59 24t-53 7q-46 0 -72.5 -32.5t-26.5 -89.5q0 -59 26.5 -91.5t72.5 -32.5q29 0 52.5 7.5
t59.5 24.5z" />
    <glyph glyph-name="registered" unicode="&#xae;" horiz-adv-x="733" 
d="M366 827q103 0 180.5 -44.5t119.5 -122t42 -173.5q0 -94 -42 -171t-119.5 -121.5t-180.5 -44.5q-102 0 -179.5 44.5t-119.5 121.5t-42 171q0 96 42 173.5t119.5 122t179.5 44.5zM366 755q-81 0 -140.5 -34t-91 -94.5t-31.5 -138.5q0 -76 31.5 -136.5t91 -95.5t140.5 -35
q80 0 140 35t92 95.5t32 136.5q0 78 -32 138.5t-92 94.5t-140 34zM525 566q0 -35 -17.5 -60.5t-47.5 -40.5l79 -161h-103l-62 143h-54v-143h-92v377h150q65 0 106 -29t41 -86zM429 562q0 26 -18 34.5t-57 8.5h-34v-84h35q36 0 55 9t19 32z" />
    <glyph glyph-name="trademark" unicode="&#x2122;" horiz-adv-x="765" 
d="M10 680h326l13 -72h-131v-303h-91v303h-117v72zM637 477l-58 -69l-28 -5l-78 86v-184h-93v375h46l137 -163l124 163h43v-375h-93v172z" />
    <glyph glyph-name="ampersand" unicode="&#x26;" horiz-adv-x="683" 
d="M314 696q47 0 96 -14t90 -37l-44 -104q-36 20 -69 31t-72 11q-36 0 -57 -21t-21 -52q0 -29 19.5 -57.5t62.5 -66.5l160 -145q25 61 29 145l117 -47q-6 -99 -46 -188l79 -69l-78 -97l-76 70q-38 -32 -89.5 -49t-113.5 -17q-75 1 -135.5 27.5t-95.5 78t-35 125.5
q0 52 26 103t70 89q-28 41 -28 93t26.5 95.5t74.5 69.5t110 26zM301 106q63 0 110 34l-198 181q-40 -46 -41 -100q0 -57 37 -86t92 -29z" />
    <glyph glyph-name="at" unicode="@" horiz-adv-x="765" 
d="M521 434l36 -45l-23 -195q0 -14 7 -23t15 -9q19 0 36.5 17t28.5 49t11 74q0 57 -27.5 102t-76 70t-109.5 25q-71 0 -135.5 -34t-104 -96.5t-39.5 -143.5q0 -65 31 -114.5t83 -76t113 -26.5q97 0 167 36l32 -99q-49 -25 -99 -33.5t-110 -8.5q-84 0 -160.5 40.5t-124 114
t-47.5 167.5q0 102 49 189t139 138t207 51q90 0 163.5 -38.5t115 -106t41.5 -151.5q0 -80 -24.5 -135.5t-67.5 -84t-98 -28.5q-46 0 -79 25q-19 -10 -41 -17t-43 -7q-88 0 -133 44t-45 119q0 62 32.5 110t85.5 74.5t114 26.5h80zM385 162q17 0 28.5 13.5t13.5 32.5l17 129
q-51 0 -86 -31t-35 -83q0 -25 15.5 -43t46.5 -18z" />
    <glyph glyph-name="asciicircum" unicode="^" horiz-adv-x="454" 
d="M310 143l-83 115l-82 -115h-135l178 247h79l177 -247h-134z" />
    <glyph glyph-name="asciitilde" unicode="~" horiz-adv-x="479" 
d="M172 210q-8 0 -16.5 -10t-9.5 -28h-116q0 84 36 125.5t90 41.5q26 0 43.5 -4t39.5 -13q19 -7 33.5 -10.5t33.5 -3.5q10 0 18 9.5t9 28.5h116q0 -85 -36 -126.5t-90 -41.5q-26 0 -43.5 4t-39.5 13q-18 8 -32.5 11.5t-35.5 3.5z" />
    <glyph glyph-name="section" unicode="&#xa7;" horiz-adv-x="601" 
d="M496 114q6 -21 6 -46q0 -55 -29.5 -97t-87 -66t-137.5 -24q-42 0 -104.5 18.5t-96.5 39.5l29 105q37 -19 84 -33.5t86 -14.5q60 0 91 19t31 55q0 25 -24.5 45.5t-75.5 48.5l-30 18q-67 40 -106.5 69t-68 68.5t-28.5 88.5q0 45 21 82t60 62q-7 25 -7 46q0 52 28 93.5
t80.5 65t125.5 23.5q86 0 192 -51l-43 -104q-41 20 -74.5 31t-72.5 11q-45 0 -73.5 -17.5t-28.5 -51.5q0 -29 22.5 -48.5t73.5 -49.5l32 -18l29 -17q59 -34 94 -59.5t58.5 -62t23.5 -85.5q0 -45 -20.5 -82t-59.5 -62zM265 310l32 -18l32 -19q62 -36 93 -60q20 18 20 47
q0 25 -24.5 45.5t-75.5 48.5l-30 18q-83 49 -122 82q-21 -18 -21 -46q0 -29 22.5 -48.5t73.5 -49.5z" />
    <glyph glyph-name="ordfeminine" unicode="&#xaa;" horiz-adv-x="327" 
d="M159 612q-20 0 -46 -6.5t-48 -14.5l-23 82q21 11 53.5 20t62.5 9q69 0 106.5 -33t37.5 -86v-212h-49l-24 26q-19 -14 -42.5 -24t-45.5 -10q-57 0 -86.5 29t-29.5 77q0 49 34.5 78.5t88.5 28.5h55q-6 36 -44 36zM152 498q-15 0 -23 -6.5t-8 -16.5t6 -16t18 -6q35 0 61 18
v27h-54z" />
    <glyph glyph-name="logicalnot" unicode="&#xac;" horiz-adv-x="514" 
d="M10 406h466l8 -50v-244l-109 5v187h-357z" />
    <glyph glyph-name="paragraph" unicode="&#xb6;" horiz-adv-x="910" 
d="M458 578v-578h-131v237h-23q-76 0 -139.5 24.5t-101.5 75.5t-38 125q0 111 74.5 164.5t193.5 53.5h592v-102h-94v-578h-131v578h-202z" />
    <glyph glyph-name="ordmasculine" unicode="&#xba;" horiz-adv-x="385" 
d="M25 533q0 78 45 123.5t122 45.5q80 0 124 -46t44 -125q0 -77 -47 -122t-126 -46q-77 1 -119.5 46t-42.5 124zM250 530q0 41 -12.5 61.5t-43.5 20.5q-59 0 -59 -79q0 -41 12.5 -61t41.5 -20q61 0 61 78z" />
    <glyph glyph-name="space" unicode=" " horiz-adv-x="225" 
 />
  </font>
</defs>
</svg>
