<?xml version="1.0" standalone="no"?>
<!DOCTYPE svg PUBLIC "-//W3C//DTD SVG 1.1//EN" "http://www.w3.org/Graphics/SVG/1.1/DTD/svg11.dtd" >
<svg>
<metadata>
Created by FontForge 20090622 at Wed Jul 24 08:14:00 2019
 By deploy user
Copyright (c) 2016 by Iulian Maftei All rights reserved.
</metadata>
<defs>
<font id="MoskExtra-Light200" horiz-adv-x="581" >
  <font-face 
    font-family="Mosk Extra-Light 200"
    font-weight="250"
    font-stretch="normal"
    units-per-em="1000"
    panose-1="2 0 5 6 0 0 0 2 0 4"
    ascent="800"
    descent="-200"
    x-height="485"
    cap-height="680"
    bbox="-24 -230 1149 909"
    underline-thickness="50"
    underline-position="-75"
    unicode-range="U+0020-U+FB02"
  />
<missing-glyph horiz-adv-x="238" 
 />
    <glyph glyph-name=".notdef" horiz-adv-x="238" 
 />
    <glyph glyph-name="uni00A0" unicode="&#xa0;" horiz-adv-x="233" 
 />
    <glyph glyph-name="A" unicode="A" 
d="M10 0l247 680h55l259 -675l-55 -11l-80 215h-296l-76 -209h-54zM155 253h265l-135 355z" />
    <glyph glyph-name="B" unicode="B" horiz-adv-x="571" 
d="M533 188q0 -100 -70 -144t-186 -44h-179v680h152q116 0 180.5 -40.5t64.5 -136.5q0 -48 -28 -83.5t-73 -57.5q66 -20 102.5 -63t36.5 -111zM438 502q0 74 -46.5 103.5t-134.5 29.5h-104v-260h91q87 1 140.5 30.5t53.5 96.5zM476 186q0 73 -48 108.5t-133 35.5h-142v-285
h131q87 0 139.5 33.5t52.5 107.5z" />
    <glyph glyph-name="C" unicode="C" horiz-adv-x="553" 
d="M361 694q37 0 88.5 -10t76.5 -27l-20 -41q-38 16 -67 23t-78 7q-71 0 -129 -39.5t-91 -109.5t-33 -160q0 -83 29 -151.5t84.5 -109.5t130.5 -41q49 0 83.5 8t66.5 22l24 -42q-28 -15 -78.5 -26t-92.5 -11q-100 0 -169 47.5t-103.5 127t-34.5 175.5q0 100 38 181.5
t109 129t166 47.5z" />
    <glyph glyph-name="D" unicode="D" horiz-adv-x="663" 
d="M615 344q0 -97 -33 -175t-99.5 -123.5t-162.5 -45.5h-222v680h227q148 0 219 -93t71 -243zM560 343q0 83 -25.5 149t-77 104.5t-126.5 38.5h-178v-590h168q71 0 125 38t84 105.5t30 154.5z" />
    <glyph glyph-name="E" unicode="E" horiz-adv-x="499" 
d="M473 44l6 -44h-381v680h376l5 -42h-326v-269h240l5 -41h-245v-284h320z" />
    <glyph glyph-name="F" unicode="F" horiz-adv-x="467" 
d="M153 365h229l6 -41h-235v-324h-55v680h342l7 -42h-294v-273z" />
    <glyph glyph-name="G" unicode="G" horiz-adv-x="620" 
d="M506 300h-153l6 42h202v-311q-29 -19 -80 -32t-96 -13q-101 0 -177.5 45.5t-118 125t-41.5 179.5q0 104 45 185.5t123 127t175 45.5q37 0 89 -10t77 -27l-19 -39q-37 15 -67 22t-78 7q-78 0 -143 -38.5t-103.5 -109.5t-38.5 -163q0 -88 36 -156.5t98.5 -106.5t141.5 -38
q59 0 122 23v242z" />
    <glyph glyph-name="H" unicode="H" horiz-adv-x="653" 
d="M555 680v-680h-55v322h-347v-322h-55v680l55 5v-319h347v314h55z" />
    <glyph glyph-name="I" unicode="I" horiz-adv-x="250" 
d="M153 680v-680h-55v680h55z" />
    <glyph glyph-name="J" unicode="J" horiz-adv-x="239" 
d="M10 -65q37 14 54.5 25.5t25 32.5t7.5 61v626h55v-638q0 -42 -9.5 -68t-35 -43.5t-73.5 -32.5l-24 37v0z" />
    <glyph glyph-name="K" unicode="K" horiz-adv-x="586" 
d="M153 263v-263h-55v680h55v-350l340 365l37 -35l-256 -269l302 -391h-68l-271 352z" />
    <glyph glyph-name="L" unicode="L" horiz-adv-x="494" 
d="M153 44h326l5 -44h-386v680h55v-636z" />
    <glyph glyph-name="M" unicode="M" horiz-adv-x="740" 
d="M587 560l-206 -318l-20 -4l-208 317v-555h-55v680h28l243 -360l240 360h33v-680h-55v560z" />
    <glyph glyph-name="N" unicode="N" horiz-adv-x="670" 
d="M153 568v-568h-55v680h34l351 -502l34 -59v561h56v-680h-34l-372 539z" />
    <glyph glyph-name="O" unicode="O" horiz-adv-x="713" 
d="M48 337q0 102 40 183.5t111.5 128t160.5 47.5q87 0 157 -45t109.5 -125t39.5 -181q0 -102 -40.5 -184t-111.5 -128.5t-160 -46.5q-88 0 -157.5 45t-109 125t-39.5 181zM361 648q-72 0 -130 -40t-90.5 -111t-32.5 -159q0 -87 31.5 -156.5t87 -109t125.5 -39.5
q73 0 130.5 40t90 111t32.5 160q0 87 -31.5 156.5t-87 108.5t-125.5 39z" />
    <glyph glyph-name="P" unicode="P" horiz-adv-x="549" 
d="M153 264v-264h-55v680h169q113 0 179 -49.5t66 -155.5q-1 -105 -72 -158t-184 -53h-103zM456 474q0 160 -182 160h-121v-325h110q85 0 138.5 42t54.5 123z" />
    <glyph glyph-name="Q" unicode="Q" horiz-adv-x="713" 
d="M567 76l68 -67l-34 -28l-69 65q-79 -60 -178 -60q-88 0 -157.5 45t-109 125t-39.5 181q0 102 40 183.5t111.5 128t160.5 47.5q87 0 157 -45t109.5 -125t39.5 -181q0 -81 -26 -150t-73 -119zM494 82l-106 99l39 33l101 -100q37 43 57 102t20 128q0 87 -31.5 156.5
t-87 108.5t-125.5 39q-72 0 -130 -40t-90.5 -111t-32.5 -159q0 -87 31.5 -156.5t87 -109t125.5 -39.5q79 0 142 49z" />
    <glyph glyph-name="R" unicode="R" horiz-adv-x="576" 
d="M98 0v680h169q114 0 179.5 -46t65.5 -148q-1 -67 -33.5 -111t-89.5 -66l177 -309h-62l-163 294q-43 -8 -85 -8h-103v-286h-55zM456 484q0 150 -187 150h-116v-303h105q85 0 141 37t57 116z" />
    <glyph glyph-name="S" unicode="S" horiz-adv-x="506" 
d="M237 -13q-44 0 -101 13t-81 29l15 43q32 -16 76 -27.5t90 -11.5q83 0 130 36.5t47 90.5t-43 91t-139 78q-92 39 -137.5 88t-45.5 116q0 46 25.5 83t72.5 58.5t110 21.5q47 0 90.5 -11t77.5 -28l-22 -41q-36 16 -67 25t-77 9q-71 0 -113.5 -33.5t-42.5 -86.5
q0 -54 43 -91.5t141 -81.5q96 -42 139 -86.5t43 -112.5q0 -77 -61 -124t-170 -47z" />
    <glyph glyph-name="T" unicode="T" horiz-adv-x="543" 
d="M10 680h518l5 -44h-234v-636h-56v636h-233v44z" />
    <glyph glyph-name="U" unicode="U" horiz-adv-x="665" 
d="M88 680h55v-438q0 -58 23.5 -105t66.5 -74.5t99 -27.5q58 0 101 27t66 74.5t23 105.5v438h55v-441q0 -73 -29 -130t-84.5 -89t-131.5 -32q-75 0 -130 32t-84.5 89t-29.5 130v441z" />
    <glyph glyph-name="V" unicode="V" 
d="M10 674l55 11l231 -613l222 607h53l-247 -680h-55z" />
    <glyph glyph-name="W" unicode="W" horiz-adv-x="816" 
d="M574 -1l-165 588l-149 -588h-55l-195 675l55 11l166 -603l152 597h54l164 -597l152 597h53l-177 -680h-55z" />
    <glyph glyph-name="X" unicode="X" horiz-adv-x="546" 
d="M274 305l-201 -305h-63l235 347l-209 321l50 24l199 -314l191 302h60l-221 -346l215 -334h-64z" />
    <glyph glyph-name="Y" unicode="Y" horiz-adv-x="537" 
d="M290 278v-278h-55v272l-225 394l52 26l200 -364l204 352h61z" />
    <glyph glyph-name="Z" unicode="Z" horiz-adv-x="548" 
d="M86 44h420l5 -44h-477l-6 50l437 586h-406l-10 44h467l5 -49z" />
    <glyph glyph-name="a" unicode="a" horiz-adv-x="479" 
d="M244 452q-45 0 -73.5 -8t-65.5 -26l-19 38q26 18 74 30t81 12q82 0 128 -43t46 -115v-340h-44l-8 52q-25 -28 -65.5 -46.5t-82.5 -18.5q-79 0 -121 41.5t-42 107.5q0 68 48 106.5t125 38.5h135v55q0 53 -29.5 84.5t-86.5 31.5zM226 242q-57 0 -87.5 -30t-30.5 -76
q0 -43 28.5 -73t79.5 -30q44 0 81 22t63 58v129h-134z" />
    <glyph glyph-name="b" unicode="b" horiz-adv-x="516" 
d="M478 241q0 -73 -25.5 -130.5t-75 -90.5t-119.5 -33q-35 0 -69.5 15t-63.5 38l-13 -40h-34v696l55 10v-257q59 49 130 49q104 0 159.5 -70t55.5 -187zM421 240q0 95 -39.5 153.5t-117.5 58.5q-42 0 -72.5 -16t-58.5 -45v-305q28 -24 58.5 -38.5t68.5 -14.5q77 0 119 59
t42 148z" />
    <glyph glyph-name="c" unicode="c" horiz-adv-x="450" 
d="M260 33q32 0 57.5 5t47 16t26.5 13l20 -39q-29 -18 -73.5 -29.5t-77.5 -11.5q-105 0 -163.5 71t-58.5 187q0 73 27.5 130.5t79.5 90t122 32.5q31 0 76 -12t73 -30l-20 -38q-36 17 -62 25.5t-69 8.5q-52 0 -90.5 -27.5t-59 -74.5t-21.5 -104q0 -93 43.5 -153t122.5 -60z
" />
    <glyph glyph-name="d" unicode="d" horiz-adv-x="514" 
d="M436 0h-33l-15 42q-60 -55 -136 -55q-104 0 -159 70t-55 187q0 73 25.5 130.5t75 90.5t119.5 33q60 0 123 -46v244l55 9v-705zM381 93v307q-28 24 -57.5 38t-68.5 14q-77 0 -118.5 -58.5t-42.5 -148.5q0 -94 40 -153t118 -59q41 0 71 15.5t58 44.5z" />
    <glyph glyph-name="e" unicode="e" horiz-adv-x="486" 
d="M253 498q93 0 144 -71t51 -186h-354q1 -94 44 -151.5t131 -57.5q44 0 78 10t70 28l20 -41q-33 -19 -76.5 -30.5t-85.5 -11.5q-119 0 -178 69.5t-59 188.5q0 113 55.5 183t159.5 70zM248 452q-68 0 -106.5 -48t-45.5 -124h295q-7 78 -41 125t-102 47z" />
    <glyph glyph-name="f" unicode="f" horiz-adv-x="269" 
d="M92 431h-73v41h73v91q0 64 29 101.5t82 37.5q32 0 66 -13l-12 -44q-6 3 -19 6t-22 3q-69 0 -69 -82v-100h88l21 -41h-109v-661h-55v661z" />
    <glyph glyph-name="g" unicode="g" horiz-adv-x="510" 
d="M436 -62q0 -74 -52.5 -121t-145.5 -47q-33 0 -85.5 12t-79.5 29l19 40q36 -17 68 -25.5t76 -9.5q64 0 104.5 30t40.5 87v102q-58 -48 -129 -48q-104 0 -159 70t-55 187q0 73 25.5 130.5t75 90.5t119.5 33q64 0 132 -52l13 39h33v-547zM381 93v307q-28 24 -57.5 38
t-68.5 14q-77 0 -118.5 -58.5t-42.5 -148.5q0 -94 40 -153t118 -59q41 0 71 15.5t58 44.5z" />
    <glyph glyph-name="h" unicode="h" horiz-adv-x="517" 
d="M454 337v-337h-55v331q0 120 -93 120q-40 0 -87 -27t-86 -71v-353h-55v696l55 10v-295q31 37 80.5 62t93.5 25q75 0 111 -43.5t36 -117.5z" />
    <glyph glyph-name="i" unicode="i" horiz-adv-x="191" 
d="M138 638q0 -18 -12.5 -30t-30.5 -12q-19 0 -30.5 12t-11.5 30t11.5 30t30.5 12q18 0 30.5 -12t12.5 -30zM123 485v-485h-55v485h55z" />
    <glyph glyph-name="j" unicode="j" horiz-adv-x="210" 
d="M61 638q0 18 11.5 30t30.5 12q18 0 30.5 -12t12.5 -30t-12.5 -30t-30.5 -12q-19 0 -30.5 12t-11.5 30zM131 485v-715h-55v715h55z" />
    <glyph glyph-name="k" unicode="k" horiz-adv-x="453" 
d="M133 199v-199h-55v696l55 10v-441l225 233l38 -34l-154 -155l211 -309h-67l-180 273z" />
    <glyph glyph-name="l" unicode="l" horiz-adv-x="210" 
d="M133 706v-706h-55v696z" />
    <glyph glyph-name="m" unicode="m" horiz-adv-x="784" 
d="M721 337v-337h-55v331q0 57 -18 88.5t-65 31.5q-34 0 -77 -24.5t-81 -64.5q1 -8 1 -25v-337h-55v331q0 57 -17.5 88.5t-64.5 31.5q-36 0 -81.5 -27t-84.5 -71v-353h-55v485h44l10 -75q31 36 80 62t88 26q100 0 126 -88q31 36 80 62t88 26q71 0 104 -43t33 -118z" />
    <glyph glyph-name="n" unicode="n" horiz-adv-x="507" 
d="M296 451q-40 0 -87 -27t-86 -71v-353h-55v485h44l10 -75q31 37 81 62.5t94 25.5q75 0 111 -43.5t36 -117.5v-337h-55v331q0 120 -93 120z" />
    <glyph glyph-name="o" unicode="o" horiz-adv-x="525" 
d="M259 -13q-105 0 -163 71t-58 187q0 72 27.5 129.5t79 90.5t121.5 33q106 -1 163.5 -70.5t57.5 -187.5q0 -72 -27.5 -129.5t-79 -90.5t-121.5 -33zM431 239q0 93 -43.5 153t-122.5 60q-52 0 -90.5 -27.5t-59 -74.5t-21.5 -104q0 -93 43.5 -153t122.5 -60q52 0 90.5 27.5
t59 74.5t21.5 104z" />
    <glyph glyph-name="p" unicode="p" horiz-adv-x="512" 
d="M474 241q0 -73 -25.5 -130.5t-75 -90.5t-119.5 -33q-33 0 -65.5 13t-59.5 34v-264h-55v715h34l13 -43q61 56 138 56q104 0 159.5 -70t55.5 -187zM417 240q0 95 -39.5 153.5t-117.5 58.5q-42 0 -72.5 -16t-58.5 -45v-305q28 -24 58.5 -38.5t68.5 -14.5q77 0 119 59t42 148
z" />
    <glyph glyph-name="q" unicode="q" horiz-adv-x="510" 
d="M436 -230h-55v265q-58 -48 -129 -48q-104 0 -159 70t-55 187q0 73 25.5 130.5t75 90.5t119.5 33q63 0 131 -52l14 39h33v-715zM381 93v307q-28 24 -57.5 38t-68.5 14q-77 0 -118.5 -58.5t-42.5 -148.5q0 -94 40 -153t118 -59q41 0 71 15.5t58 44.5z" />
    <glyph glyph-name="r" unicode="r" horiz-adv-x="306" 
d="M296 442q-43 0 -92.5 -28t-80.5 -62v-352h-55v485h34l18 -77q34 28 79.5 52.5t79.5 24.5l17 -43v0z" />
    <glyph glyph-name="s" unicode="s" horiz-adv-x="412" 
d="M190 -13q-34 0 -78 10.5t-70 27.5l18 43q74 -36 132 -36q60 0 95 23t35 64q0 59 -130 107q-148 53 -148 138q0 61 45.5 97.5t126.5 36.5q33 0 75 -11.5t66 -28.5l-20 -39q-34 16 -60.5 25t-65.5 9q-50 0 -82 -24.5t-32 -60.5q0 -31 32 -53.5t91 -44.5q69 -26 111.5 -61.5
t42.5 -85.5q0 -65 -46.5 -100.5t-137.5 -35.5z" />
    <glyph glyph-name="t" unicode="t" horiz-adv-x="295" 
d="M146 472h88l21 -41h-109v-308q0 -39 16.5 -64t51.5 -25q20 0 41 9l12 -44q-3 0 -27 -7q-20 -5 -39 -5q-51 0 -80.5 33.5t-29.5 95.5v315h-72v41h72v129l55 22v-151z" />
    <glyph glyph-name="u" unicode="u" horiz-adv-x="507" 
d="M211 34q40 0 87.5 27t86.5 71v353h55v-485h-44l-10 76q-32 -37 -82 -63t-94 -26q-75 0 -110.5 43.5t-35.5 117.5v337h55v-331q0 -56 21 -88t71 -32z" />
    <glyph glyph-name="v" unicode="v" horiz-adv-x="434" 
d="M424 485l-179 -485h-56l-179 473l49 22l158 -428l152 418h55z" />
    <glyph glyph-name="w" unicode="w" horiz-adv-x="642" 
d="M632 485l-140 -485h-57l-120 402l-110 -402h-56l-139 472l49 22l117 -421l117 412h50l121 -412l113 412h55z" />
    <glyph glyph-name="x" unicode="x" horiz-adv-x="416" 
d="M201 203l-129 -203h-62l162 244l-144 228l49 22l137 -221l132 212h60l-163 -253l150 -232h-61z" />
    <glyph glyph-name="y" unicode="y" horiz-adv-x="434" 
d="M424 485l-179 -485h-1v-230h-55v230l-179 473l49 22l158 -428l152 418h55z" />
    <glyph glyph-name="z" unicode="z" horiz-adv-x="432" 
d="M55 485h348l3 -32l-318 -411h302l10 -42h-366l-8 31l315 411h-270z" />
    <glyph glyph-name="fi" unicode="&#xfb01;" horiz-adv-x="459" 
d="M92 431h-73v41h73v91q0 64 29 101.5t82 37.5q32 0 66 -13l-12 -44q-6 3 -19 6t-22 3q-69 0 -69 -82v-100h88l21 -41h-109v-661h-55v661zM407 638q0 -18 -12.5 -30t-30.5 -12q-19 0 -30.5 12t-11.5 30t11.5 30t30.5 12q18 0 30.5 -12t12.5 -30zM392 485v-485h-55v485h55z
" />
    <glyph glyph-name="fl" unicode="&#xfb02;" horiz-adv-x="479" 
d="M92 431h-73v41h73v91q0 64 29 101.5t82 37.5q32 0 66 -13l-12 -44q-6 3 -19 6t-22 3q-69 0 -69 -82v-100h88l21 -41h-109v-661h-55v661zM402 706v-706h-55v696z" />
    <glyph glyph-name="zero" unicode="0" horiz-adv-x="578" 
d="M290 -13q-73 0 -130 38.5t-89.5 107.5t-32.5 155q0 83 32.5 149.5t89.5 104t130 37.5q72 0 129 -37.5t89.5 -103.5t32.5 -149q0 -86 -32.5 -155t-89.5 -108t-129 -39zM290 532q-56 0 -100.5 -31t-69.5 -86t-25 -124q0 -74 25 -132.5t69.5 -91.5t100.5 -33q55 0 99 32.5
t69 90t25 129.5q0 71 -25 127t-69 87.5t-99 31.5z" />
    <glyph glyph-name="one" unicode="1" horiz-adv-x="300" 
d="M222 566v-566h-56v499l-134 -57l-22 43l174 81h38z" />
    <glyph glyph-name="two" unicode="2" horiz-adv-x="473" 
d="M38 527q37 22 80.5 37t100.5 15q60 0 106 -20.5t71.5 -57.5t25.5 -83q0 -55 -36.5 -107.5t-112.5 -115.5l-184 -151h356l8 -44h-428v50l219 186q69 58 94.5 95t25.5 85q0 53 -40.5 85t-106.5 32q-48 0 -83 -13t-74 -35l-22 42v0z" />
    <glyph glyph-name="three" unicode="3" horiz-adv-x="451" 
d="M11 520q93 59 194 59q61 0 104.5 -22.5t65 -59.5t21.5 -80q0 -52 -32.5 -92.5t-81.5 -56.5q57 -13 91.5 -57.5t34.5 -104.5q0 -52 -27 -93t-76 -65t-115 -24q-52 0 -101.5 15t-88.5 37l33 39q39 -23 74 -34t86 -11q40 0 76.5 17t59 47.5t22.5 69.5q0 67 -48.5 104.5
t-148.5 37.5h-18l-10 41h34q83 0 131 35.5t48 93.5q0 30 -17 57t-48.5 43.5t-71.5 16.5q-85 0 -160 -49l-31 36v0z" />
    <glyph glyph-name="four" unicode="4" horiz-adv-x="512" 
d="M381 119h111l-8 -45h-103v-143h-55v143h-307l-9 51l337 446h34v-452zM326 119v345l-258 -345h258z" />
    <glyph glyph-name="five" unicode="5" horiz-adv-x="491" 
d="M249 284q-36 0 -70 -16.5t-56 -37.5h-49l15 336h325l-5 -45h-268l-10 -230q26 18 56.5 28.5t57.5 10.5q104 0 155.5 -56t52.5 -144q0 -57 -27 -103.5t-79 -74.5t-125 -28q-88 0 -184 51l28 40q38 -22 75.5 -33.5t84.5 -11.5q78 0 123 43.5t45 116.5q0 71 -39.5 112.5
t-105.5 41.5z" />
    <glyph glyph-name="six" unicode="6" horiz-adv-x="497" 
d="M459 190q0 -54 -26.5 -100.5t-73 -74.5t-103.5 -28q-64 0 -113.5 32t-77 93.5t-27.5 147.5q0 107 49.5 188t127 128t162.5 58l18 -44q-61 -3 -126 -37.5t-113 -96t-60 -139.5q68 70 159 70q64 0 110 -27.5t70 -72.5t24 -97zM403 185q0 69 -40 113t-108 44
q-47 0 -92 -25.5t-71 -60.5q2 -109 43 -165.5t119 -56.5q46 0 79.5 21.5t51.5 56t18 73.5z" />
    <glyph glyph-name="seven" unicode="7" horiz-adv-x="429" 
d="M409 537l-235 -606l-53 20l230 570h-333l-8 45h377z" />
    <glyph glyph-name="eight" unicode="8" horiz-adv-x="508" 
d="M66 481q0 44 21 80.5t64 59t104 22.5q62 0 104 -23t63 -60t21 -79q0 -47 -31.5 -84.5t-76.5 -57.5q55 -13 95.5 -61t40.5 -109q0 -49 -25 -90.5t-73.5 -66.5t-117.5 -25q-70 0 -119 24t-73.5 65.5t-24.5 92.5q0 36 18.5 72t50 63t68.5 35q-48 19 -78.5 56.5t-30.5 85.5z
M388 482q0 49 -35 82.5t-101 33.5q-63 0 -96.5 -34t-33.5 -82q0 -44 35.5 -78.5t97.5 -43.5q60 9 96.5 44.5t36.5 77.5zM414 164q0 59 -41.5 101t-117.5 51q-78 -9 -119 -51t-41 -101q0 -37 21 -67t57.5 -47t81.5 -17q43 0 79.5 17t58 46.5t21.5 67.5z" />
    <glyph glyph-name="nine" unicode="9" horiz-adv-x="497" 
d="M459 305q0 -107 -49.5 -188t-127.5 -128t-163 -58l-18 44q62 3 127 37.5t113.5 96t60.5 140.5q-71 -71 -161 -71q-64 0 -110 27.5t-69.5 72.5t-23.5 97q0 55 26 101.5t72.5 74t103.5 27.5q64 0 113.5 -31.5t77.5 -93.5t28 -148zM405 311q-3 108 -44.5 164.5t-118.5 56.5
q-46 0 -79.5 -21.5t-51.5 -56.5t-18 -74q0 -68 40 -112t108 -44q48 0 93 26t71 61z" />
    <glyph glyph-name="grave" unicode="`" horiz-adv-x="141" 
d="M131 601l-36 -12l-85 153h66z" />
    <glyph glyph-name="dieresis" unicode="&#xa8;" horiz-adv-x="258" 
d="M90 658q0 -17 -11.5 -28.5t-28.5 -11.5t-28.5 11.5t-11.5 28.5t11.5 28t28.5 11t28.5 -11.5t11.5 -27.5zM248 658q0 -17 -11.5 -28.5t-28.5 -11.5q-18 0 -29 11.5t-11 28.5t11 28t29 11q17 0 28.5 -11.5t11.5 -27.5z" />
    <glyph glyph-name="acute" unicode="&#xb4;" horiz-adv-x="141" 
d="M131 742l-85 -153l-36 12l55 141h66z" />
    <glyph glyph-name="circumflex" unicode="&#x2c6;" horiz-adv-x="276" 
d="M217 589l-79 114l-81 -114l-47 10l103 143h49l104 -141z" />
    <glyph glyph-name="caron" unicode="&#x2c7;" horiz-adv-x="276" 
d="M59 742l80 -114l80 114l47 -12l-103 -141h-49l-104 143z" />
    <glyph glyph-name="breve" unicode="&#x2d8;" horiz-adv-x="280" 
d="M140 644q39 0 62.5 26t23.5 61h44q0 -54 -33.5 -92t-96.5 -38q-62 0 -96 38t-34 92h43q0 -34 23.5 -60.5t63.5 -26.5z" />
    <glyph glyph-name="dotaccent" unicode="&#x2d9;" horiz-adv-x="105" 
d="M95 661q0 -18 -12.5 -30.5t-29.5 -12.5q-19 0 -31 12.5t-12 30.5q0 17 12.5 29.5t30.5 12.5q17 0 29.5 -12.5t12.5 -29.5z" />
    <glyph glyph-name="ring" unicode="&#x2da;" horiz-adv-x="197" 
d="M10 675q0 36 26.5 60t62.5 24t62 -24t26 -60q0 -35 -25.5 -58t-62.5 -23t-63 23t-26 58zM52 675q0 -20 13.5 -33.5t33.5 -13.5t33.5 13.5t13.5 33.5q0 21 -13.5 35t-33.5 14t-33.5 -14t-13.5 -35z" />
    <glyph glyph-name="tilde" unicode="&#x2dc;" horiz-adv-x="302" 
d="M206 651q17 0 28.5 12.5t13.5 35.5h41q0 -47 -23 -69t-60 -22q-34 0 -60 27q-28 26 -52 26q-17 0 -28.5 -13t-13.5 -36h-42q0 47 23 69t60 22q42 0 65 -26t48 -26z" />
    <glyph glyph-name="hungarumlaut" unicode="&#x2dd;" horiz-adv-x="274" 
d="M131 742l-85 -153l-36 12l55 141h66zM264 742l-85 -153l-35 12l55 141h65z" />
    <glyph glyph-name="ogonek" unicode="&#x2db;" horiz-adv-x="205" 
d="M10 -111q0 28 18 60t46 55l43 -4q-27 -22 -42 -50.5t-15 -59.5q0 -27 18 -41.5t40 -14.5q29 0 55 21l22 -32q-13 -13 -34.5 -21.5t-45.5 -8.5q-45 0 -75 27t-30 69z" />
    <glyph glyph-name="cedilla" unicode="&#xb8;" horiz-adv-x="206" 
d="M148 -136q0 22 -26.5 39t-67.5 18l35 92h47l-26 -65q38 -7 62 -31t24 -51q0 -41 -31 -64t-79 -23q-19 0 -41.5 5.5t-34.5 13.5l15 36q34 -14 59 -14q26 0 45 12.5t19 31.5z" />
    <glyph glyph-name="Thorn" unicode="&#xde;" horiz-adv-x="549" 
d="M512 395q-1 -105 -72 -158t-184 -53h-103v-184h-55v680h55v-80h114q113 0 179 -49.5t66 -155.5zM456 394q0 160 -182 160h-121v-325h110q85 0 138.5 42t54.5 123z" />
    <glyph glyph-name="Eth" unicode="&#xd0;" horiz-adv-x="663" 
d="M615 344q0 -97 -33 -175t-99.5 -123.5t-162.5 -45.5h-222v312h-74l-9 44h83v324h227q148 0 219 -93t71 -243zM560 343q0 83 -25.5 149t-77 104.5t-126.5 38.5h-178v-279h110l9 -44h-119v-267h168q71 0 125 38t84 105.5t30 154.5z" />
    <glyph glyph-name="AE" unicode="&#xc6;" horiz-adv-x="835" 
d="M815 0h-381v209h-243l-128 -214l-53 10l416 675h362l5 -42h-304v-269h240l5 -41h-245v-284h321zM434 253v351l-215 -351h215z" />
    <glyph glyph-name="Lslash" unicode="&#x141;" horiz-adv-x="489" 
d="M38 218l-26 37l81 70v355h55v-307l113 99l26 -35l-139 -123v-270h326l5 -44h-386v266z" />
    <glyph glyph-name="OE" unicode="&#x152;" horiz-adv-x="901" 
d="M500 12q-30 -11 -70.5 -18.5t-74.5 -7.5q-100 0 -169 47.5t-103.5 127t-34.5 175.5q0 100 38 181.5t109 129t166 47.5q28 0 68.5 -6.5t70.5 -17.5v10h353l5 -42h-303v-269h240l5 -41h-245v-284h320l6 -44h-381v12zM500 64v554q-34 14 -63.5 21t-75.5 7q-71 0 -129 -39.5
t-91 -109.5t-33 -160q0 -83 29 -151.5t84.5 -109.5t130.5 -41q49 0 83 7.5t65 21.5z" />
    <glyph glyph-name="Oslash" unicode="&#xd8;" horiz-adv-x="713" 
d="M666 345q0 -102 -40.5 -184t-111.5 -128.5t-160 -46.5q-88 0 -157.5 45t-109 125t-39.5 181q0 102 40 183.5t111.5 128t160.5 47.5q87 0 157 -45t109.5 -125t39.5 -181zM217 80l236 548q-43 20 -92 20q-72 0 -130 -40t-90.5 -111t-32.5 -159q0 -84 29 -151t80 -107z
M605 344q0 83 -28 150t-79 106l-236 -548q44 -19 90 -19q73 0 130.5 40t90 111t32.5 160z" />
    <glyph glyph-name="germandbls" unicode="&#xdf;" horiz-adv-x="550" 
d="M133 -230h-55v703q0 98 55 152.5t149 54.5q82 0 136.5 -46t54.5 -131q0 -53 -23.5 -90t-67.5 -57q57 -19 91 -62t34 -106q0 -100 -69.5 -144t-186.5 -44h-43v45h51q87 0 139 33.5t52 107.5q0 73 -48 108.5t-133 35.5h-45v45h27q88 0 126.5 31t38.5 96q0 63 -38.5 97
t-95.5 34q-72 0 -110.5 -44.5t-38.5 -115.5v-703z" />
    <glyph glyph-name="eth" unicode="&#xf0;" horiz-adv-x="525" 
d="M487 240q0 -72 -27.5 -129.5t-79 -90.5t-121.5 -33q-105 0 -163 71t-58 187q0 72 27.5 129.5t79 90.5t121.5 33q70 -1 122 -39q-47 103 -148 176l-128 -64l-22 39l108 53q-49 29 -100 50l16 37q71 -26 131 -64l113 56l21 -36l-93 -47q201 -149 201 -419zM431 239
q0 79 -17 147q-29 32 -67.5 49t-81.5 17q-52 0 -90.5 -27.5t-59 -74.5t-21.5 -104q0 -93 43.5 -153t122.5 -60q52 0 90.5 27.5t59 74.5t21.5 104z" />
    <glyph glyph-name="thorn" unicode="&#xfe;" horiz-adv-x="512" 
d="M474 241q0 -73 -25.5 -130.5t-75 -90.5t-119.5 -33q-33 0 -65.5 13t-59.5 34v-242l-55 -11v915l55 10v-258q58 50 130 50q104 0 159.5 -70t55.5 -187zM417 240q0 95 -39.5 153.5t-117.5 58.5q-42 0 -72.5 -16t-58.5 -46v-303q28 -25 58 -39.5t69 -14.5q77 0 119 59
t42 148z" />
    <glyph glyph-name="florin" unicode="&#x192;" horiz-adv-x="299" 
d="M49 431v41h73v91q0 64 29 101.5t82 37.5q32 0 66 -13l-12 -44q-6 3 -19 6t-22 3q-69 0 -69 -82v-100h88l21 -41h-109v-358q0 -64 -29 -101.5t-82 -37.5q-32 0 -66 13l12 44q6 -3 18.5 -6t21.5 -3q70 0 70 82v367h-73z" />
    <glyph glyph-name="ae" unicode="&#xe6;" horiz-adv-x="805" 
d="M736 70l20 -41q-33 -19 -76.5 -30.5t-85.5 -11.5q-134 0 -195 93q-67 -93 -184 -93q-79 0 -121 41.5t-42 107.5q0 68 48 106.5t125 38.5h134l1 13v42q0 53 -29.5 84.5t-86.5 31.5q-45 0 -73.5 -8t-65.5 -26l-19 38q26 18 74 30t81 12q59 0 100 -23t60 -64
q27 42 70.5 64.5t101.5 22.5q92 0 143 -71t51 -186h-354q1 -93 44 -150.5t132 -57.5q44 0 78 9.5t69 27.5zM415 281h295q-7 78 -41 124.5t-102 46.5t-106.5 -47.5t-45.5 -123.5zM377 124q-20 54 -20 118h-131q-57 0 -87.5 -30t-30.5 -76q0 -43 28.5 -73t79.5 -30
q61 0 97 24.5t64 66.5z" />
    <glyph glyph-name="oe" unicode="&#x153;" horiz-adv-x="766" 
d="M697 70l20 -41q-33 -19 -76.5 -30.5t-85.5 -11.5q-87 0 -145 41q-29 -18 -73 -29.5t-77 -11.5q-105 0 -163.5 71t-58.5 187q0 73 27.5 130.5t79.5 90t122 32.5q29 0 70.5 -10.5t71.5 -27.5q51 38 125 38q92 0 143.5 -71.5t51.5 -185.5h-354q1 -94 43.5 -151.5
t131.5 -57.5q44 0 77.5 9.5t69.5 28.5zM260 33q40 0 64.5 6.5t50.5 19.5q-57 69 -57 186q0 115 56 183q-24 11 -49 17.5t-60 6.5q-52 0 -90.5 -27.5t-59 -74.5t-21.5 -104q0 -93 43.5 -153t122.5 -60zM377 280h295q-7 78 -41 125t-102 47t-106.5 -48t-45.5 -124z" />
    <glyph glyph-name="lslash" unicode="&#x142;" horiz-adv-x="274" 
d="M165 408l84 74l25 -36l-109 -97v-349h-55v301l-84 -74l-26 38l110 95v336l55 10v-298z" />
    <glyph glyph-name="dotlessi" unicode="&#x131;" horiz-adv-x="191" 
d="M123 485v-485h-55v485h55z" />
    <glyph glyph-name="oslash" unicode="&#xf8;" horiz-adv-x="525" 
d="M259 -13q-105 0 -163 71t-58 187q0 72 27.5 129.5t79 90.5t121.5 33q106 -1 163.5 -70.5t57.5 -187.5q0 -72 -27.5 -129.5t-79 -90.5t-121.5 -33zM431 239q0 93 -43.5 153t-122.5 60q-52 0 -90.5 -27.5t-59 -74.5t-21.5 -104q0 -93 43.5 -153t122.5 -60q52 0 90.5 27.5
t59 74.5t21.5 104zM258 220l17 31l-2 -4l-13 -24z" />
    <glyph glyph-name="Agrave" unicode="&#xc0;" 
d="M323 751l-36 -12l-85 153h66zM10 0l247 680h55l259 -675l-55 -11l-80 215h-296l-76 -209h-54zM155 253h265l-135 355z" />
    <glyph glyph-name="Aacute" unicode="&#xc1;" 
d="M363 892l-85 -153l-36 12l55 141h66zM10 0l247 680h55l259 -675l-55 -11l-80 215h-296l-76 -209h-54zM155 253h265l-135 355z" />
    <glyph glyph-name="Acircumflex" unicode="&#xc2;" 
d="M364 740l-79 113l-81 -113l-47 10l103 143h49l104 -141zM10 0l247 680h55l259 -675l-55 -11l-80 215h-296l-76 -209h-54zM155 253h265l-135 355z" />
    <glyph glyph-name="Atilde" unicode="&#xc3;" 
d="M335 801q17 0 28.5 12.5t13.5 35.5h41q0 -47 -23 -69t-60 -22q-34 0 -60 27q-28 26 -52 26q-17 0 -28.5 -13t-13.5 -36h-42q0 47 23 69t60 22q42 0 65 -26t48 -26zM10 0l247 680h55l259 -675l-55 -11l-80 215h-296l-76 -209h-54zM155 253h265l-135 355z" />
    <glyph glyph-name="Adieresis" unicode="&#xc4;" 
d="M243 808q0 -17 -11.5 -28.5t-28.5 -11.5t-28.5 11.5t-11.5 28.5t11.5 28t28.5 11t28.5 -11.5t11.5 -27.5zM401 808q0 -17 -11.5 -28.5t-28.5 -11.5q-18 0 -29 11.5t-11 28.5t11 28t29 11q17 0 28.5 -11.5t11.5 -27.5zM10 0l247 680h55l259 -675l-55 -11l-80 215h-296
l-76 -209h-54zM155 253h265l-135 355z" />
    <glyph glyph-name="Aring" unicode="&#xc5;" 
d="M196 825q0 36 26.5 60t62.5 24t62 -24t26 -60q0 -35 -25.5 -58t-62.5 -23t-63 23t-26 58zM238 825q0 -20 13.5 -33.5t33.5 -13.5t33.5 13.5t13.5 33.5q0 21 -13.5 35t-33.5 14t-33.5 -14t-13.5 -35zM10 0l247 680h55l259 -675l-55 -11l-80 215h-296l-76 -209h-54z
M155 253h265l-135 355z" />
    <glyph glyph-name="Ccedilla" unicode="&#xc7;" horiz-adv-x="553" 
d="M372 -14l-15 -38q38 -7 62 -31t24 -51q0 -41 -31 -64t-79 -23q-19 0 -41.5 5.5t-34.5 13.5l15 36q34 -14 59 -14q26 0 45 12.5t19 31.5q0 22 -26.5 39t-67.5 18l25 66q-91 7 -153.5 56t-93.5 125.5t-31 167.5q0 100 38 181.5t109 129t166 47.5q37 0 88.5 -10t76.5 -27
l-20 -41q-38 16 -67 23t-78 7q-71 0 -129 -39.5t-91 -109.5t-33 -160q0 -83 29 -151.5t84.5 -109.5t130.5 -41q49 0 83.5 8t66.5 22l24 -42q-25 -14 -69 -24.5t-85 -12.5z" />
    <glyph glyph-name="Egrave" unicode="&#xc8;" horiz-adv-x="499" 
d="M315 751l-36 -12l-85 153h66zM473 44l6 -44h-381v680h376l5 -42h-326v-269h240l5 -41h-245v-284h320z" />
    <glyph glyph-name="Eacute" unicode="&#xc9;" horiz-adv-x="499" 
d="M354 892l-85 -153l-36 12l55 141h66zM473 44l6 -44h-381v680h376l5 -42h-326v-269h240l5 -41h-245v-284h320z" />
    <glyph glyph-name="Ecircumflex" unicode="&#xca;" horiz-adv-x="499" 
d="M356 740l-79 113l-81 -113l-47 10l103 143h49l104 -141zM473 44l6 -44h-381v680h376l5 -42h-326v-269h240l5 -41h-245v-284h320z" />
    <glyph glyph-name="Edieresis" unicode="&#xcb;" horiz-adv-x="499" 
d="M234 808q0 -17 -11.5 -28.5t-28.5 -11.5t-28.5 11.5t-11.5 28.5t11.5 28t28.5 11t28.5 -11.5t11.5 -27.5zM392 808q0 -17 -11.5 -28.5t-28.5 -11.5q-18 0 -29 11.5t-11 28.5t11 28t29 11q17 0 28.5 -11.5t11.5 -27.5zM473 44l6 -44h-381v680h376l5 -42h-326v-269h240
l5 -41h-245v-284h320z" />
    <glyph glyph-name="Igrave" unicode="&#xcc;" horiz-adv-x="250" 
d="M164 751l-36 -12l-85 153h66zM153 680v-680h-55v680h55z" />
    <glyph glyph-name="Iacute" unicode="&#xcd;" horiz-adv-x="250" 
d="M204 892l-85 -153l-36 12l55 141h66zM153 680v-680h-55v680h55z" />
    <glyph glyph-name="Icircumflex" unicode="&#xce;" horiz-adv-x="250" 
d="M205 740l-79 113l-81 -113l-47 10l103 143h49l104 -141zM153 680v-680h-55v680h55z" />
    <glyph glyph-name="Idieresis" unicode="&#xcf;" horiz-adv-x="250" 
d="M84 808q0 -17 -11.5 -28.5t-28.5 -11.5t-28.5 11.5t-11.5 28.5t11.5 28t28.5 11t28.5 -11.5t11.5 -27.5zM242 808q0 -17 -11.5 -28.5t-28.5 -11.5q-18 0 -29 11.5t-11 28.5t11 28t29 11q17 0 28.5 -11.5t11.5 -27.5zM153 680v-680h-55v680h55z" />
    <glyph glyph-name="Ntilde" unicode="&#xd1;" horiz-adv-x="670" 
d="M385 801q17 0 28.5 12.5t13.5 35.5h41q0 -47 -23 -69t-60 -22q-34 0 -60 27q-28 26 -52 26q-17 0 -28.5 -13t-13.5 -36h-42q0 47 23 69t60 22q42 0 65 -26t48 -26zM153 568v-568h-55v680h34l351 -502l34 -59v561h56v-680h-34l-372 539z" />
    <glyph glyph-name="Ograve" unicode="&#xd2;" horiz-adv-x="713" 
d="M398 751l-36 -12l-85 153h66zM48 337q0 102 40 183.5t111.5 128t160.5 47.5q87 0 157 -45t109.5 -125t39.5 -181q0 -102 -40.5 -184t-111.5 -128.5t-160 -46.5q-88 0 -157.5 45t-109 125t-39.5 181zM361 648q-72 0 -130 -40t-90.5 -111t-32.5 -159q0 -87 31.5 -156.5
t87 -109t125.5 -39.5q73 0 130.5 40t90 111t32.5 160q0 87 -31.5 156.5t-87 108.5t-125.5 39z" />
    <glyph glyph-name="Oacute" unicode="&#xd3;" horiz-adv-x="713" 
d="M437 892l-85 -153l-36 12l55 141h66zM48 337q0 102 40 183.5t111.5 128t160.5 47.5q87 0 157 -45t109.5 -125t39.5 -181q0 -102 -40.5 -184t-111.5 -128.5t-160 -46.5q-88 0 -157.5 45t-109 125t-39.5 181zM361 648q-72 0 -130 -40t-90.5 -111t-32.5 -159
q0 -87 31.5 -156.5t87 -109t125.5 -39.5q73 0 130.5 40t90 111t32.5 160q0 87 -31.5 156.5t-87 108.5t-125.5 39z" />
    <glyph glyph-name="Ocircumflex" unicode="&#xd4;" horiz-adv-x="713" 
d="M439 740l-79 113l-81 -113l-47 10l103 143h49l104 -141zM48 337q0 102 40 183.5t111.5 128t160.5 47.5q87 0 157 -45t109.5 -125t39.5 -181q0 -102 -40.5 -184t-111.5 -128.5t-160 -46.5q-88 0 -157.5 45t-109 125t-39.5 181zM361 648q-72 0 -130 -40t-90.5 -111
t-32.5 -159q0 -87 31.5 -156.5t87 -109t125.5 -39.5q73 0 130.5 40t90 111t32.5 160q0 87 -31.5 156.5t-87 108.5t-125.5 39z" />
    <glyph glyph-name="Otilde" unicode="&#xd5;" horiz-adv-x="713" 
d="M410 801q17 0 28.5 12.5t13.5 35.5h41q0 -47 -23 -69t-60 -22q-34 0 -60 27q-28 26 -52 26q-17 0 -28.5 -13t-13.5 -36h-42q0 47 23 69t60 22q42 0 65 -26t48 -26zM48 337q0 102 40 183.5t111.5 128t160.5 47.5q87 0 157 -45t109.5 -125t39.5 -181q0 -102 -40.5 -184
t-111.5 -128.5t-160 -46.5q-88 0 -157.5 45t-109 125t-39.5 181zM361 648q-72 0 -130 -40t-90.5 -111t-32.5 -159q0 -87 31.5 -156.5t87 -109t125.5 -39.5q73 0 130.5 40t90 111t32.5 160q0 87 -31.5 156.5t-87 108.5t-125.5 39z" />
    <glyph glyph-name="Odieresis" unicode="&#xd6;" horiz-adv-x="713" 
d="M318 808q0 -17 -11.5 -28.5t-28.5 -11.5t-28.5 11.5t-11.5 28.5t11.5 28t28.5 11t28.5 -11.5t11.5 -27.5zM476 808q0 -17 -11.5 -28.5t-28.5 -11.5q-18 0 -29 11.5t-11 28.5t11 28t29 11q17 0 28.5 -11.5t11.5 -27.5zM48 337q0 102 40 183.5t111.5 128t160.5 47.5
q87 0 157 -45t109.5 -125t39.5 -181q0 -102 -40.5 -184t-111.5 -128.5t-160 -46.5q-88 0 -157.5 45t-109 125t-39.5 181zM361 648q-72 0 -130 -40t-90.5 -111t-32.5 -159q0 -87 31.5 -156.5t87 -109t125.5 -39.5q73 0 130.5 40t90 111t32.5 160q0 87 -31.5 156.5t-87 108.5
t-125.5 39z" />
    <glyph glyph-name="Scaron" unicode="&#x160;" horiz-adv-x="506" 
d="M178 892l80 -114l80 114l47 -12l-103 -141h-49l-104 143zM237 -13q-44 0 -101 13t-81 29l15 43q32 -16 76 -27.5t90 -11.5q83 0 130 36.5t47 90.5t-43 91t-139 78q-92 39 -137.5 88t-45.5 116q0 46 25.5 83t72.5 58.5t110 21.5q47 0 90.5 -11t77.5 -28l-22 -41
q-36 16 -67 25t-77 9q-71 0 -113.5 -33.5t-42.5 -86.5q0 -54 43 -91.5t141 -81.5q96 -42 139 -86.5t43 -112.5q0 -77 -61 -124t-170 -47z" />
    <glyph glyph-name="Ugrave" unicode="&#xd9;" horiz-adv-x="665" 
d="M370 751l-36 -12l-85 153h66zM88 680h55v-438q0 -58 23.5 -105t66.5 -74.5t99 -27.5q58 0 101 27t66 74.5t23 105.5v438h55v-441q0 -73 -29 -130t-84.5 -89t-131.5 -32q-75 0 -130 32t-84.5 89t-29.5 130v441z" />
    <glyph glyph-name="Uacute" unicode="&#xda;" horiz-adv-x="665" 
d="M410 892l-85 -153l-36 12l55 141h66zM88 680h55v-438q0 -58 23.5 -105t66.5 -74.5t99 -27.5q58 0 101 27t66 74.5t23 105.5v438h55v-441q0 -73 -29 -130t-84.5 -89t-131.5 -32q-75 0 -130 32t-84.5 89t-29.5 130v441z" />
    <glyph glyph-name="Ucircumflex" unicode="&#xdb;" horiz-adv-x="665" 
d="M411 740l-79 113l-81 -113l-47 10l103 143h49l104 -141zM88 680h55v-438q0 -58 23.5 -105t66.5 -74.5t99 -27.5q58 0 101 27t66 74.5t23 105.5v438h55v-441q0 -73 -29 -130t-84.5 -89t-131.5 -32q-75 0 -130 32t-84.5 89t-29.5 130v441z" />
    <glyph glyph-name="Udieresis" unicode="&#xdc;" horiz-adv-x="665" 
d="M290 808q0 -17 -11.5 -28.5t-28.5 -11.5t-28.5 11.5t-11.5 28.5t11.5 28t28.5 11t28.5 -11.5t11.5 -27.5zM448 808q0 -17 -11.5 -28.5t-28.5 -11.5q-18 0 -29 11.5t-11 28.5t11 28t29 11q17 0 28.5 -11.5t11.5 -27.5zM88 680h55v-438q0 -58 23.5 -105t66.5 -74.5
t99 -27.5q58 0 101 27t66 74.5t23 105.5v438h55v-441q0 -73 -29 -130t-84.5 -89t-131.5 -32q-75 0 -130 32t-84.5 89t-29.5 130v441z" />
    <glyph glyph-name="Yacute" unicode="&#xdd;" horiz-adv-x="537" 
d="M340 892l-85 -153l-36 12l55 141h66zM290 278v-278h-55v272l-225 394l52 26l200 -364l204 352h61z" />
    <glyph glyph-name="Ydieresis" unicode="&#x178;" horiz-adv-x="537" 
d="M220 808q0 -17 -11.5 -28.5t-28.5 -11.5t-28.5 11.5t-11.5 28.5t11.5 28t28.5 11t28.5 -11.5t11.5 -27.5zM378 808q0 -17 -11.5 -28.5t-28.5 -11.5q-18 0 -29 11.5t-11 28.5t11 28t29 11q17 0 28.5 -11.5t11.5 -27.5zM290 278v-278h-55v272l-225 394l52 26l200 -364
l204 352h61z" />
    <glyph glyph-name="Zcaron" unicode="&#x17d;" horiz-adv-x="548" 
d="M198 892l80 -114l80 114l47 -12l-103 -141h-49l-104 143zM86 44h420l5 -44h-477l-6 50l437 586h-406l-10 44h467l5 -49z" />
    <glyph glyph-name="agrave" unicode="&#xe0;" horiz-adv-x="479" 
d="M244 452q-45 0 -73.5 -8t-65.5 -26l-19 38q26 18 74 30t81 12q82 0 128 -43t46 -115v-340h-44l-8 52q-25 -28 -65.5 -46.5t-82.5 -18.5q-79 0 -121 41.5t-42 107.5q0 68 48 106.5t125 38.5h135v55q0 53 -29.5 84.5t-86.5 31.5zM226 242q-57 0 -87.5 -30t-30.5 -76
q0 -43 28.5 -73t79.5 -30q44 0 81 22t63 58v129h-134zM283 601l-36 -12l-85 153h66z" />
    <glyph glyph-name="aacute" unicode="&#xe1;" horiz-adv-x="479" 
d="M244 452q-45 0 -73.5 -8t-65.5 -26l-19 38q26 18 74 30t81 12q82 0 128 -43t46 -115v-340h-44l-8 52q-25 -28 -65.5 -46.5t-82.5 -18.5q-79 0 -121 41.5t-42 107.5q0 68 48 106.5t125 38.5h135v55q0 53 -29.5 84.5t-86.5 31.5zM226 242q-57 0 -87.5 -30t-30.5 -76
q0 -43 28.5 -73t79.5 -30q44 0 81 22t63 58v129h-134zM320 742l-85 -153l-36 12l55 141h66z" />
    <glyph glyph-name="acircumflex" unicode="&#xe2;" horiz-adv-x="479" 
d="M244 452q-45 0 -73.5 -8t-65.5 -26l-19 38q26 18 74 30t81 12q82 0 128 -43t46 -115v-340h-44l-8 52q-25 -28 -65.5 -46.5t-82.5 -18.5q-79 0 -121 41.5t-42 107.5q0 68 48 106.5t125 38.5h135v55q0 53 -29.5 84.5t-86.5 31.5zM226 242q-57 0 -87.5 -30t-30.5 -76
q0 -43 28.5 -73t79.5 -30q44 0 81 22t63 58v129h-134zM327 589l-79 114l-81 -114l-47 10l103 143h49l104 -141z" />
    <glyph glyph-name="atilde" unicode="&#xe3;" horiz-adv-x="479" 
d="M244 452q-45 0 -73.5 -8t-65.5 -26l-19 38q26 18 74 30t81 12q82 0 128 -43t46 -115v-340h-44l-8 52q-25 -28 -65.5 -46.5t-82.5 -18.5q-79 0 -121 41.5t-42 107.5q0 68 48 106.5t125 38.5h135v55q0 53 -29.5 84.5t-86.5 31.5zM226 242q-57 0 -87.5 -30t-30.5 -76
q0 -43 28.5 -73t79.5 -30q44 0 81 22t63 58v129h-134zM294 651q17 0 28.5 12.5t13.5 35.5h41q0 -47 -23 -69t-60 -22q-34 0 -60 27q-28 26 -52 26q-17 0 -28.5 -13t-13.5 -36h-42q0 47 23 69t60 22q42 0 65 -26t48 -26z" />
    <glyph glyph-name="adieresis" unicode="&#xe4;" horiz-adv-x="479" 
d="M244 452q-45 0 -73.5 -8t-65.5 -26l-19 38q26 18 74 30t81 12q82 0 128 -43t46 -115v-340h-44l-8 52q-25 -28 -65.5 -46.5t-82.5 -18.5q-79 0 -121 41.5t-42 107.5q0 68 48 106.5t125 38.5h135v55q0 53 -29.5 84.5t-86.5 31.5zM226 242q-57 0 -87.5 -30t-30.5 -76
q0 -43 28.5 -73t79.5 -30q44 0 81 22t63 58v129h-134zM206 658q0 -17 -11.5 -28.5t-28.5 -11.5t-28.5 11.5t-11.5 28.5t11.5 28t28.5 11t28.5 -11.5t11.5 -27.5zM364 658q0 -17 -11.5 -28.5t-28.5 -11.5q-18 0 -29 11.5t-11 28.5t11 28t29 11q17 0 28.5 -11.5t11.5 -27.5z
" />
    <glyph glyph-name="aring" unicode="&#xe5;" horiz-adv-x="479" 
d="M244 452q-45 0 -73.5 -8t-65.5 -26l-19 38q26 18 74 30t81 12q82 0 128 -43t46 -115v-340h-44l-8 52q-25 -28 -65.5 -46.5t-82.5 -18.5q-79 0 -121 41.5t-42 107.5q0 68 48 106.5t125 38.5h135v55q0 53 -29.5 84.5t-86.5 31.5zM226 242q-57 0 -87.5 -30t-30.5 -76
q0 -43 28.5 -73t79.5 -30q44 0 81 22t63 58v129h-134zM155 675q0 36 26.5 60t62.5 24t62 -24t26 -60q0 -35 -25.5 -58t-62.5 -23t-63 23t-26 58zM197 675q0 -20 13.5 -33.5t33.5 -13.5t33.5 13.5t13.5 33.5q0 21 -13.5 35t-33.5 14t-33.5 -14t-13.5 -35z" />
    <glyph glyph-name="ccedilla" unicode="&#xe7;" horiz-adv-x="450" 
d="M279 -12l-16 -40q38 -7 62 -31t24 -51q0 -41 -31 -64t-79 -23q-19 0 -41.5 5.5t-34.5 13.5l15 36q34 -14 59 -14q26 0 45 12.5t19 31.5q0 22 -26.5 39t-67.5 18l26 67q-93 10 -144 79.5t-51 177.5q0 73 27.5 130.5t79.5 90t122 32.5q31 0 76 -12t73 -30l-20 -38
q-36 17 -62 25.5t-69 8.5q-52 0 -90.5 -27.5t-59 -74.5t-21.5 -104q0 -93 43.5 -153t122.5 -60q32 0 54.5 4.5t41 12.5t35.5 17l20 -39q-24 -15 -61.5 -26t-70.5 -14z" />
    <glyph glyph-name="egrave" unicode="&#xe8;" horiz-adv-x="486" 
d="M253 498q93 0 144 -71t51 -186h-354q1 -94 44 -151.5t131 -57.5q44 0 78 10t70 28l20 -41q-33 -19 -76.5 -30.5t-85.5 -11.5q-119 0 -178 69.5t-59 188.5q0 113 55.5 183t159.5 70zM248 452q-68 0 -106.5 -48t-45.5 -124h295q-7 78 -41 125t-102 47zM291 601l-36 -12
l-85 153h66z" />
    <glyph glyph-name="eacute" unicode="&#xe9;" horiz-adv-x="486" 
d="M253 498q93 0 144 -71t51 -186h-354q1 -94 44 -151.5t131 -57.5q44 0 78 10t70 28l20 -41q-33 -19 -76.5 -30.5t-85.5 -11.5q-119 0 -178 69.5t-59 188.5q0 113 55.5 183t159.5 70zM248 452q-68 0 -106.5 -48t-45.5 -124h295q-7 78 -41 125t-102 47zM328 742l-85 -153
l-36 12l55 141h66z" />
    <glyph glyph-name="ecircumflex" unicode="&#xea;" horiz-adv-x="486" 
d="M253 498q93 0 144 -71t51 -186h-354q1 -94 44 -151.5t131 -57.5q44 0 78 10t70 28l20 -41q-33 -19 -76.5 -30.5t-85.5 -11.5q-119 0 -178 69.5t-59 188.5q0 113 55.5 183t159.5 70zM248 452q-68 0 -106.5 -48t-45.5 -124h295q-7 78 -41 125t-102 47zM335 589l-79 114
l-81 -114l-47 10l103 143h49l104 -141z" />
    <glyph glyph-name="edieresis" unicode="&#xeb;" horiz-adv-x="486" 
d="M253 498q93 0 144 -71t51 -186h-354q1 -94 44 -151.5t131 -57.5q44 0 78 10t70 28l20 -41q-33 -19 -76.5 -30.5t-85.5 -11.5q-119 0 -178 69.5t-59 188.5q0 113 55.5 183t159.5 70zM248 452q-68 0 -106.5 -48t-45.5 -124h295q-7 78 -41 125t-102 47zM213 658
q0 -17 -11.5 -28.5t-28.5 -11.5t-28.5 11.5t-11.5 28.5t11.5 28t28.5 11t28.5 -11.5t11.5 -27.5zM371 658q0 -17 -11.5 -28.5t-28.5 -11.5q-18 0 -29 11.5t-11 28.5t11 28t29 11q17 0 28.5 -11.5t11.5 -27.5z" />
    <glyph glyph-name="igrave" unicode="&#xec;" horiz-adv-x="191" 
d="M123 485v-485h-55v485h55zM136 601l-36 -12l-85 153h66z" />
    <glyph glyph-name="iacute" unicode="&#xed;" horiz-adv-x="191" 
d="M123 485v-485h-55v485h55zM173 742l-85 -153l-36 12l55 141h66z" />
    <glyph glyph-name="icircumflex" unicode="&#xee;" horiz-adv-x="191" 
d="M123 485v-485h-55v485h55zM183 589l-79 114l-81 -114l-47 10l103 143h49l104 -141z" />
    <glyph glyph-name="idieresis" unicode="&#xef;" horiz-adv-x="191" 
d="M123 485v-485h-55v485h55zM61 658q0 -17 -11.5 -28.5t-28.5 -11.5t-28.5 11.5t-11.5 28.5t11.5 28t28.5 11t28.5 -11.5t11.5 -27.5zM219 658q0 -17 -11.5 -28.5t-28.5 -11.5q-18 0 -29 11.5t-11 28.5t11 28t29 11q17 0 28.5 -11.5t11.5 -27.5z" />
    <glyph glyph-name="ntilde" unicode="&#xf1;" horiz-adv-x="507" 
d="M296 451q-40 0 -87 -27t-86 -71v-353h-55v485h44l10 -75q31 37 81 62.5t94 25.5q75 0 111 -43.5t36 -117.5v-337h-55v331q0 120 -93 120zM314 651q17 0 28.5 12.5t13.5 35.5h41q0 -47 -23 -69t-60 -22q-34 0 -60 27q-28 26 -52 26q-17 0 -28.5 -13t-13.5 -36h-42
q0 47 23 69t60 22q42 0 65 -26t48 -26z" />
    <glyph glyph-name="ograve" unicode="&#xf2;" horiz-adv-x="525" 
d="M259 -13q-105 0 -163 71t-58 187q0 72 27.5 129.5t79 90.5t121.5 33q106 -1 163.5 -70.5t57.5 -187.5q0 -72 -27.5 -129.5t-79 -90.5t-121.5 -33zM431 239q0 93 -43.5 153t-122.5 60q-52 0 -90.5 -27.5t-59 -74.5t-21.5 -104q0 -93 43.5 -153t122.5 -60q52 0 90.5 27.5
t59 74.5t21.5 104zM304 601l-36 -12l-85 153h66z" />
    <glyph glyph-name="oacute" unicode="&#xf3;" horiz-adv-x="525" 
d="M259 -13q-105 0 -163 71t-58 187q0 72 27.5 129.5t79 90.5t121.5 33q106 -1 163.5 -70.5t57.5 -187.5q0 -72 -27.5 -129.5t-79 -90.5t-121.5 -33zM431 239q0 93 -43.5 153t-122.5 60q-52 0 -90.5 -27.5t-59 -74.5t-21.5 -104q0 -93 43.5 -153t122.5 -60q52 0 90.5 27.5
t59 74.5t21.5 104zM341 742l-85 -153l-36 12l55 141h66z" />
    <glyph glyph-name="ocircumflex" unicode="&#xf4;" horiz-adv-x="525" 
d="M259 -13q-105 0 -163 71t-58 187q0 72 27.5 129.5t79 90.5t121.5 33q106 -1 163.5 -70.5t57.5 -187.5q0 -72 -27.5 -129.5t-79 -90.5t-121.5 -33zM431 239q0 93 -43.5 153t-122.5 60q-52 0 -90.5 -27.5t-59 -74.5t-21.5 -104q0 -93 43.5 -153t122.5 -60q52 0 90.5 27.5
t59 74.5t21.5 104zM348 589l-79 114l-81 -114l-47 10l103 143h49l104 -141z" />
    <glyph glyph-name="otilde" unicode="&#xf5;" horiz-adv-x="525" 
d="M259 -13q-105 0 -163 71t-58 187q0 72 27.5 129.5t79 90.5t121.5 33q106 -1 163.5 -70.5t57.5 -187.5q0 -72 -27.5 -129.5t-79 -90.5t-121.5 -33zM431 239q0 93 -43.5 153t-122.5 60q-52 0 -90.5 -27.5t-59 -74.5t-21.5 -104q0 -93 43.5 -153t122.5 -60q52 0 90.5 27.5
t59 74.5t21.5 104zM315 651q17 0 28.5 12.5t13.5 35.5h41q0 -47 -23 -69t-60 -22q-34 0 -60 27q-28 26 -52 26q-17 0 -28.5 -13t-13.5 -36h-42q0 47 23 69t60 22q42 0 65 -26t48 -26z" />
    <glyph glyph-name="odieresis" unicode="&#xf6;" horiz-adv-x="525" 
d="M259 -13q-105 0 -163 71t-58 187q0 72 27.5 129.5t79 90.5t121.5 33q106 -1 163.5 -70.5t57.5 -187.5q0 -72 -27.5 -129.5t-79 -90.5t-121.5 -33zM431 239q0 93 -43.5 153t-122.5 60q-52 0 -90.5 -27.5t-59 -74.5t-21.5 -104q0 -93 43.5 -153t122.5 -60q52 0 90.5 27.5
t59 74.5t21.5 104zM226 658q0 -17 -11.5 -28.5t-28.5 -11.5t-28.5 11.5t-11.5 28.5t11.5 28t28.5 11t28.5 -11.5t11.5 -27.5zM384 658q0 -17 -11.5 -28.5t-28.5 -11.5q-18 0 -29 11.5t-11 28.5t11 28t29 11q17 0 28.5 -11.5t11.5 -27.5z" />
    <glyph glyph-name="scaron" unicode="&#x161;" horiz-adv-x="412" 
d="M190 -13q-34 0 -78 10.5t-70 27.5l18 43q74 -36 132 -36q60 0 95 23t35 64q0 59 -130 107q-148 53 -148 138q0 61 45.5 97.5t126.5 36.5q33 0 75 -11.5t66 -28.5l-20 -39q-34 16 -60.5 25t-65.5 9q-50 0 -82 -24.5t-32 -60.5q0 -31 32 -53.5t91 -44.5q69 -26 111.5 -61.5
t42.5 -85.5q0 -65 -46.5 -100.5t-137.5 -35.5zM135 742l80 -114l80 114l47 -12l-103 -141h-49l-104 143z" />
    <glyph glyph-name="ugrave" unicode="&#xf9;" horiz-adv-x="507" 
d="M211 34q40 0 87.5 27t86.5 71v353h55v-485h-44l-10 76q-32 -37 -82 -63t-94 -26q-75 0 -110.5 43.5t-35.5 117.5v337h55v-331q0 -56 21 -88t71 -32zM288 601l-36 -12l-85 153h66z" />
    <glyph glyph-name="uacute" unicode="&#xfa;" horiz-adv-x="507" 
d="M211 34q40 0 87.5 27t86.5 71v353h55v-485h-44l-10 76q-32 -37 -82 -63t-94 -26q-75 0 -110.5 43.5t-35.5 117.5v337h55v-331q0 -56 21 -88t71 -32zM325 742l-85 -153l-36 12l55 141h66z" />
    <glyph glyph-name="ucircumflex" unicode="&#xfb;" horiz-adv-x="507" 
d="M211 34q40 0 87.5 27t86.5 71v353h55v-485h-44l-10 76q-32 -37 -82 -63t-94 -26q-75 0 -110.5 43.5t-35.5 117.5v337h55v-331q0 -56 21 -88t71 -32zM332 589l-79 114l-81 -114l-47 10l103 143h49l104 -141z" />
    <glyph glyph-name="udieresis" unicode="&#xfc;" horiz-adv-x="507" 
d="M211 34q40 0 87.5 27t86.5 71v353h55v-485h-44l-10 76q-32 -37 -82 -63t-94 -26q-75 0 -110.5 43.5t-35.5 117.5v337h55v-331q0 -56 21 -88t71 -32zM210 658q0 -17 -11.5 -28.5t-28.5 -11.5t-28.5 11.5t-11.5 28.5t11.5 28t28.5 11t28.5 -11.5t11.5 -27.5zM368 658
q0 -17 -11.5 -28.5t-28.5 -11.5q-18 0 -29 11.5t-11 28.5t11 28t29 11q17 0 28.5 -11.5t11.5 -27.5z" />
    <glyph glyph-name="yacute" unicode="&#xfd;" horiz-adv-x="434" 
d="M424 485l-179 -485h-1v-230h-55v230l-179 473l49 22l158 -428l152 418h55zM290 742l-85 -153l-36 12l55 141h66z" />
    <glyph glyph-name="ydieresis" unicode="&#xff;" horiz-adv-x="434" 
d="M424 485l-179 -485h-1v-230h-55v230l-179 473l49 22l158 -428l152 418h55zM175 658q0 -17 -11.5 -28.5t-28.5 -11.5t-28.5 11.5t-11.5 28.5t11.5 28t28.5 11t28.5 -11.5t11.5 -27.5zM333 658q0 -17 -11.5 -28.5t-28.5 -11.5q-18 0 -29 11.5t-11 28.5t11 28t29 11
q17 0 28.5 -11.5t11.5 -27.5z" />
    <glyph glyph-name="zcaron" unicode="&#x17e;" horiz-adv-x="432" 
d="M55 485h348l3 -32l-318 -411h302l10 -42h-366l-8 31l315 411h-270zM146 742l80 -114l80 114l47 -12l-103 -141h-49l-104 143z" />
    <glyph glyph-name="mu" unicode="&#xb5;" horiz-adv-x="517" 
d="M450 0h-44l-10 76q-32 -37 -82 -63t-94 -26q-56 0 -91 26v-221l-55 -11v704h55v-331q0 -56 21 -88t71 -32q40 0 87.5 27t86.5 71v353h55v-485z" />
    <glyph glyph-name="cent" unicode="&#xa2;" horiz-adv-x="450" 
d="M290 -11v-100h-47v99q-97 6 -151 76t-54 181q0 105 55 174.5t150 77.5v98l47 10v-109q32 -3 67.5 -14t58.5 -26l-20 -38q-36 17 -62 25.5t-69 8.5q-52 0 -90.5 -27.5t-59 -74.5t-21.5 -104q0 -93 43.5 -153t122.5 -60q32 0 54.5 4.5t41 12.5t35.5 17l20 -39
q-22 -14 -55.5 -24.5t-65.5 -14.5z" />
    <glyph glyph-name="sterling" unicode="&#xa3;" horiz-adv-x="428" 
d="M418 0h-350l-4 44q67 1 67 83v205h-71l-2 41h73v172q0 64 29 101.5t82 37.5q32 0 66 -13l-12 -44q-7 3 -19.5 6.5t-21.5 3.5q-69 0 -69 -83v-181h138l22 -41h-160v-184q0 -35 -8 -60.5t-26 -43.5h260z" />
    <glyph glyph-name="currency" unicode="&#xa4;" horiz-adv-x="662" 
d="M325 -13q-95 0 -159 61l-105 -104l-31 36l104 104q-46 67 -46 162q0 87 48 152l-106 105l31 37l107 -106q33 30 76 47t91 17q95 0 162 -62l104 104l31 -37l-104 -105q23 -32 35 -73t12 -86q-2 -88 -49 -152l106 -107l-31 -36l-108 106q-32 -30 -75 -46.5t-93 -16.5z
M326 34q55 0 99 27t68.5 74t24.5 104q0 59 -21.5 107t-63 76.5t-97.5 28.5q-55 0 -98.5 -27.5t-68.5 -74.5t-25 -103q0 -61 23 -109t64.5 -75.5t94.5 -27.5z" />
    <glyph glyph-name="yen" unicode="&#xa5;" horiz-adv-x="537" 
d="M290 278v-278h-55v272l-225 394l52 26l200 -364l204 352h61zM278 280l-1 2h-18l1 -2h18zM278 105l-1 2h-18l1 -2h18z" />
    <glyph glyph-name="Euro" unicode="&#x20ac;" horiz-adv-x="593" 
d="M541 65l24 -42q-28 -15 -78 -26t-92 -11q-100 0 -169.5 47.5t-104 127t-34.5 175.5q0 32 5 70h-85l-7 44h101q28 110 106.5 177t193.5 67q37 0 88 -10t76 -27l-20 -41q-38 16 -67 23t-78 7q-83 -1 -147.5 -53.5t-90.5 -142.5h252l7 -44h-269q-5 -37 -5 -69
q0 -83 29 -151.5t84.5 -109.5t130.5 -41q49 0 83.5 8t66.5 22zM219 248l1 -2h-18l-1 2h18z" />
    <glyph glyph-name="dollar" unicode="$" horiz-adv-x="522" 
d="M55 29l15 43q32 -16 76 -27.5t90 -11.5q83 0 130 36.5t47 90.5t-43 91t-139 78q-92 39 -137.5 88t-45.5 116q0 56 37 97.5t102 57.5v99l43 10v-103q14 2 26 2q22 0 41 -3v97l44 10v-114q44 -10 83 -29l-22 -41q-36 16 -67 25t-77 9q-71 0 -113.5 -33.5t-42.5 -86.5
q0 -54 43 -91.5t141 -81.5q96 -42 139 -86.5t43 -112.5q0 -55 -33 -96.5t-94 -60.5v-112h-44v103q-30 -5 -60 -5h-7v-98h-43v102q-40 5 -77.5 15.5t-54.5 22.5z" />
    <glyph glyph-name="comma" unicode="," horiz-adv-x="156" 
d="M40 42q0 17 12.5 29.5t30.5 12.5q19 0 31 -13.5t12 -33.5q0 -46 -24.5 -86t-64.5 -59l-17 27q58 34 59 81q-17 0 -28 13.5t-11 28.5z" />
    <glyph glyph-name="period" unicode="." horiz-adv-x="145" 
d="M115 43q0 -18 -12.5 -30.5t-29.5 -12.5q-19 0 -31 12.5t-12 30.5q0 17 12.5 29t30.5 12q17 0 29.5 -12.5t12.5 -28.5z" />
    <glyph glyph-name="exclam" unicode="!" horiz-adv-x="146" 
d="M99 179l-43 21l-8 502h64zM30 43q0 17 12.5 29t30.5 12t30.5 -12t12.5 -29q0 -18 -12.5 -30.5t-30.5 -12.5t-30.5 12.5t-12.5 30.5z" />
    <glyph glyph-name="exclamdown" unicode="&#xa1;" horiz-adv-x="146" 
d="M116 659q0 -18 -12 -30.5t-30 -12.5t-30.5 13t-12.5 30t12.5 30t30.5 13t30 -12.5t12 -30.5zM48 523l43 -21l8 -502h-63z" />
    <glyph glyph-name="colon" unicode=":" horiz-adv-x="145" 
d="M115 403q0 -17 -12.5 -30t-30.5 -13t-30 12.5t-12 30.5q0 17 12 30t30 13t30.5 -13t12.5 -30zM115 84q0 -18 -12.5 -30.5t-30.5 -12.5t-30 12.5t-12 30.5t12 30.5t30 12.5t30.5 -12.5t12.5 -30.5z" />
    <glyph glyph-name="semicolon" unicode=";" horiz-adv-x="156" 
d="M126 403q0 -17 -12.5 -30t-30.5 -13t-30.5 12.5t-12.5 30.5q0 17 12.5 30t30.5 13t30.5 -13t12.5 -30zM40 83q0 18 12.5 31t30.5 13q19 0 31 -14t12 -35q0 -45 -24.5 -85.5t-64.5 -59.5l-17 27q58 34 59 81q-17 1 -28 14t-11 28z" />
    <glyph glyph-name="question" unicode="?" horiz-adv-x="398" 
d="M10 641q38 28 80 44.5t96 16.5q90 0 136 -44.5t46 -119.5q0 -58 -47.5 -114t-129.5 -92l-9 -194l-39 20l-8 205q79 25 126.5 71.5t47.5 102.5q0 59 -32 88.5t-93 29.5q-50 0 -85.5 -14.5t-80.5 -46.5zM115 43q0 17 12 29t30 12t30.5 -12t12.5 -29q0 -18 -12.5 -30.5
t-30.5 -12.5t-30 12.5t-12 30.5z" />
    <glyph glyph-name="questiondown" unicode="&#xbf;" horiz-adv-x="398" 
d="M283 579q0 -18 -12.5 -30.5t-30.5 -12.5q-17 0 -30 13t-13 30t13 30t30 13q18 0 30.5 -12.5t12.5 -30.5zM388 -20q-37 -28 -79.5 -44t-96.5 -16q-91 0 -136.5 44t-45.5 119q0 58 47.5 114.5t129.5 92.5l9 194l39 -20l7 -205q-79 -25 -126 -71.5t-47 -102.5
q0 -59 32 -88.5t93 -29.5q50 0 85.5 14.5t80.5 46.5z" />
    <glyph glyph-name="asterisk" unicode="*" horiz-adv-x="325" 
d="M141 774h41v-118l120 29l13 -35l-119 -27l82 -121l-33 -21l-83 115l-80 -115l-36 21l83 121l-119 27l12 35l118 -29z" />
    <glyph glyph-name="quotedbl" unicode="&#x22;" horiz-adv-x="289" 
d="M40 659q0 17 12 30t31 13q18 0 30.5 -14.5t12.5 -34.5q0 -45 -24.5 -84.5t-64.5 -59.5l-17 27q56 34 59 80q-18 1 -28.5 14.5t-10.5 28.5zM174 659q0 17 12 30t31 13q18 0 30 -14.5t12 -34.5q0 -45 -24 -85t-64 -59l-17 27q56 33 59 80q-17 1 -28 14.5t-11 28.5z" />
    <glyph glyph-name="quotesingle" unicode="'" horiz-adv-x="156" 
d="M40 659q0 17 12 30t31 13q18 0 30.5 -14.5t12.5 -34.5q0 -45 -24.5 -84.5t-64.5 -59.5l-17 27q56 34 59 80q-18 1 -28.5 14.5t-10.5 28.5z" />
    <glyph glyph-name="quoteleft" unicode="&#x2018;" horiz-adv-x="156" 
d="M115 551q0 -17 -11.5 -29.5t-30.5 -12.5t-31 14t-12 34q0 45 24.5 85t63.5 60l18 -28q-57 -32 -60 -80q18 -1 28.5 -14t10.5 -29z" />
    <glyph glyph-name="quoteright" unicode="&#x2019;" horiz-adv-x="156" 
d="M40 659q0 17 12 30t31 13q18 0 30.5 -14.5t12.5 -34.5q0 -45 -24.5 -84.5t-64.5 -59.5l-17 27q56 34 59 80q-18 1 -28.5 14.5t-10.5 28.5z" />
    <glyph glyph-name="quotesinglbase" unicode="&#x201a;" horiz-adv-x="156" 
d="M40 42q0 17 12 29.5t31 12.5q18 0 30.5 -13.5t12.5 -33.5q0 -46 -24.5 -85.5t-64.5 -59.5l-17 27q56 34 59 81q-17 0 -28 13.5t-11 28.5z" />
    <glyph glyph-name="quotedblleft" unicode="&#x201c;" horiz-adv-x="289" 
d="M115 551q0 -17 -11.5 -29.5t-30.5 -12.5t-31 14t-12 34q0 45 24.5 85t63.5 60l18 -28q-57 -32 -60 -80q18 -1 28.5 -14t10.5 -29zM249 551q0 -17 -12 -29.5t-31 -12.5q-18 0 -30 14t-12 34q0 45 24.5 85.5t64.5 59.5l16 -28q-57 -33 -58 -80q17 -1 27.5 -14t10.5 -29z
" />
    <glyph glyph-name="quotedblright" unicode="&#x201d;" horiz-adv-x="289" 
d="M40 659q0 17 12 30t31 13q18 0 30.5 -14.5t12.5 -34.5q0 -45 -24.5 -84.5t-64.5 -59.5l-17 27q56 34 59 80q-18 1 -28.5 14.5t-10.5 28.5zM174 659q0 17 12 30t31 13q18 0 30 -14.5t12 -34.5q0 -45 -24 -85t-64 -59l-17 27q56 33 59 80q-17 1 -28 14.5t-11 28.5z" />
    <glyph glyph-name="quotedblbase" unicode="&#x201e;" horiz-adv-x="289" 
d="M193 37q0 -46 -24 -85.5t-64 -58.5l-2 -1l-17 27q56 34 59 81q-17 0 -28 13.5t-11 28.5q0 18 12 30.5t31 12.5q13 0 24 -8q9 -6 14.5 -16.5t5.5 -23.5z" />
    <glyph glyph-name="parenleft" unicode="(" horiz-adv-x="245" 
d="M107 321q0 -49 15 -118t40 -131t53 -91l-46 -18q-59 76 -89 173t-30 184q0 86 30 183t89 172l46 -18q-28 -30 -53 -91t-40 -129t-15 -116z" />
    <glyph glyph-name="parenright" unicode=")" horiz-adv-x="245" 
d="M138 319q0 48 -15.5 116.5t-40.5 130t-52 91.5l46 18q58 -76 88.5 -173.5t30.5 -181.5q0 -86 -30.5 -183t-88.5 -174l-46 18q27 29 52 90.5t40.5 130.5t15.5 117z" />
    <glyph glyph-name="bracketleft" unicode="[" horiz-adv-x="269" 
d="M259 -88h-159v784h159l-8 -42h-98v-701h98z" />
    <glyph glyph-name="bracketright" unicode="]" horiz-adv-x="268" 
d="M10 696h158v-784h-158l8 41h98v701h-98z" />
    <glyph glyph-name="braceleft" unicode="{" horiz-adv-x="265" 
d="M195 419q0 -43 -17 -70.5t-47 -39.5q29 -13 46.5 -42t17.5 -70q0 -29 -19 -71t-19 -70q0 -24 18.5 -41t53.5 -17h19l7 -42h-26q-62 0 -93 28t-31 78q0 32 18 72q18 41 18 71q0 36 -23.5 59.5t-54.5 23.5h-33v39h33q31 0 54.5 23.5t23.5 59.5q0 32 -18 72q-18 41 -18 72
q0 49 31.5 77t92.5 28h26l-7 -42h-19q-34 0 -53 -17t-19 -40q0 -29 19 -71t19 -70z" />
    <glyph glyph-name="braceright" unicode="}" horiz-adv-x="265" 
d="M70 197q0 42 17.5 70t47.5 40q-30 13 -47.5 41.5t-17.5 70.5q0 28 19 70t19 71q0 23 -19 40t-53 17h-19l-7 42h26q61 0 92.5 -28t31.5 -77q0 -31 -18 -72q-18 -40 -18 -72q0 -36 23.5 -59.5t54.5 -23.5h33v-38h-33q-31 0 -54.5 -24t-23.5 -60q0 -30 18 -71q18 -40 18 -72
q0 -50 -31 -78t-93 -28h-26l7 42h19q35 0 53.5 17t18.5 41q0 28 -19 70t-19 71z" />
    <glyph glyph-name="slash" unicode="/" horiz-adv-x="380" 
d="M10 0l308 710l52 -4l-309 -710z" />
    <glyph glyph-name="backslash" unicode="\" horiz-adv-x="380" 
d="M62 710l308 -710l-52 -4l-308 710z" />
    <glyph glyph-name="bar" unicode="|" horiz-adv-x="250" 
d="M98 0v710l55 -4v-710z" />
    <glyph glyph-name="brokenbar" unicode="&#xa6;" horiz-adv-x="250" 
d="M98 410v300l55 -4v-300zM98 0v292l55 -4v-292z" />
    <glyph glyph-name="guillemotleft" unicode="&#xab;" horiz-adv-x="363" 
d="M170 84l-140 142v38l140 142l21 -36l-117 -125l117 -125zM322 84l-140 142v38l140 142l21 -36l-118 -125l118 -125z" />
    <glyph glyph-name="guillemotright" unicode="&#xbb;" horiz-adv-x="363" 
d="M42 406l140 -142v-38l-140 -142l-22 36l118 125l-118 125zM194 406l139 -142v-38l-139 -142l-22 36l118 125l-118 125z" />
    <glyph glyph-name="dagger" unicode="&#x2020;" horiz-adv-x="369" 
d="M154 622v161l57 -3v-158h109l19 -42h-128l-5 -584l-47 4l-5 580h-105l-19 42h124z" />
    <glyph glyph-name="daggerdbl" unicode="&#x2021;" horiz-adv-x="376" 
d="M214 189l2 -188l-58 -7l2 195h-111l-19 43h129l1 305h-111l-19 43h131l-2 203l58 -3l-3 -200h113l19 -43h-130l-2 -305h113l19 -43h-132z" />
    <glyph glyph-name="bullet" unicode="&#x2022;" horiz-adv-x="202" 
d="M172 326q0 -29 -21 -49.5t-50 -20.5t-50 20.5t-21 49.5q0 30 21 51t50 21t50 -21t21 -51z" />
    <glyph glyph-name="ellipsis" unicode="&#x2026;" horiz-adv-x="395" 
d="M111 40q0 -17 -11.5 -28.5t-28.5 -11.5t-29 11.5t-12 28.5t12 28.5t29 11.5t28.5 -11.5t11.5 -28.5zM239 40q0 -17 -11.5 -28.5t-28.5 -11.5t-29 11.5t-12 28.5t12 28.5t29 11.5t28.5 -11.5t11.5 -28.5zM365 40q0 -17 -11.5 -28.5t-28.5 -11.5t-29 11.5t-12 28.5t12 28.5
t29 11.5t28.5 -11.5t11.5 -28.5z" />
    <glyph glyph-name="guilsinglleft" unicode="&#x2039;" horiz-adv-x="211" 
d="M170 83l-140 143v38l140 144l21 -40l-114 -123l114 -123z" />
    <glyph glyph-name="guilsinglright" unicode="&#x203a;" horiz-adv-x="212" 
d="M42 408l140 -144v-37l-140 -144l-22 39l116 124l-116 123z" />
    <glyph glyph-name="hyphen" unicode="-" horiz-adv-x="313" 
d="M30 295h245l8 -44h-245z" />
    <glyph glyph-name="underscore" unicode="_" horiz-adv-x="434" 
d="M30 44h366l8 -44h-366z" />
    <glyph glyph-name="endash" unicode="&#x2013;" horiz-adv-x="435" 
d="M30 295h367l8 -44h-367z" />
    <glyph glyph-name="emdash" unicode="&#x2014;" horiz-adv-x="529" 
d="M30 295h461l8 -44h-461z" />
    <glyph glyph-name="numbersign" unicode="#" horiz-adv-x="497" 
d="M346 371l32 131h49l-33 -131h66l7 -44h-84l-35 -143h112l7 -44h-130l-34 -140l-47 5l33 135h-134l-34 -140l-48 5l33 135h-68l-8 44h87l35 143h-114l-8 44h133l33 131h48l-32 -131h134zM299 184l36 143h-134l-35 -143h133z" />
    <glyph glyph-name="percent" unicode="%" horiz-adv-x="823" 
d="M226 0l308 710l53 -4l-309 -710zM38 532q0 51 20 89.5t55 59.5t79 21q69 0 111 -45t42 -125q0 -51 -20 -89t-55 -59t-77 -21q-70 0 -112.5 44.5t-42.5 124.5zM291 532q0 61 -28 94t-71 33q-40 0 -70 -33t-30 -94q0 -59 29.5 -92.5t71.5 -33.5q40 0 69 32.5t29 93.5z
M478 168q0 51 20 89.5t55 59.5t79 21q69 0 111 -45t42 -125q0 -51 -20.5 -89t-55 -59t-77.5 -21q-69 0 -111.5 45t-42.5 124zM731 168q0 61 -28 93.5t-71 32.5q-41 0 -70.5 -32t-29.5 -94q0 -59 29 -92t71 -33q40 0 69.5 32.5t29.5 92.5z" />
    <glyph glyph-name="plus" unicode="+" horiz-adv-x="531" 
d="M291 295h200l10 -43h-210v-248l-53 4v244h-200l-8 43h208v239l53 -3v-236z" />
    <glyph glyph-name="divide" unicode="&#xf7;" horiz-adv-x="497" 
d="M294 415q0 -18 -13.5 -32t-32.5 -14q-20 0 -33.5 13.5t-13.5 32.5q0 20 13 33.5t34 13.5q20 0 33 -13.5t13 -33.5zM30 295h428l9 -43h-429zM297 113q0 -19 -13.5 -33t-32.5 -14q-21 0 -34 13.5t-13 33.5t13 33t34 13q19 0 32.5 -13.5t13.5 -32.5z" />
    <glyph glyph-name="multiply" unicode="&#xd7;" horiz-adv-x="478" 
d="M376 31l-139 174l-150 -174h-57l183 219l-166 214h55l138 -174l152 174h56l-183 -219l167 -214h-56z" />
    <glyph glyph-name="plusminus" unicode="&#xb1;" horiz-adv-x="492" 
d="M269 347h181l8 -42h-189v-197l-52 5v192h-179l-8 42h187v187l52 -3v-184zM30 42h424l8 -42h-424z" />
    <glyph glyph-name="less" unicode="&#x3c;" horiz-adv-x="322" 
d="M81 245l221 -186l-23 -40l-249 207v38l249 206l23 -39z" />
    <glyph glyph-name="equal" unicode="=" horiz-adv-x="497" 
d="M30 371h430l7 -44h-429zM30 184h430l7 -44h-429z" />
    <glyph glyph-name="greater" unicode="&#x3e;" horiz-adv-x="322" 
d="M43 470l249 -207v-37l-249 -207l-23 39l221 186l-221 187z" />
    <glyph glyph-name="degree" unicode="&#xb0;" horiz-adv-x="238" 
d="M10 599q0 43 31 73t75 30q45 0 76 -30t31 -73q0 -44 -30.5 -72.5t-76.5 -28.5q-45 0 -75.5 28.5t-30.5 72.5zM53 600q0 -26 18.5 -46.5t46.5 -20.5t45.5 20.5t17.5 46.5q0 25 -19 45t-46 20t-45 -19.5t-18 -45.5z" />
    <glyph glyph-name="onesuperior" unicode="&#xb9;" horiz-adv-x="243" 
d="M166 765v-429h-49v375l-84 -42l-23 31l126 65h30z" />
    <glyph glyph-name="twosuperior" unicode="&#xb2;" horiz-adv-x="347" 
d="M29 733q29 16 68.5 27t74.5 11q47 0 79 -18t47 -45.5t15 -57.5q0 -41 -24.5 -79t-81.5 -88l-125 -109h239l6 -38h-302v40l156 139q49 45 66 77q16 31 16 55q0 33 -23 58.5t-70 25.5q-29 0 -63.5 -11t-58.5 -24l-19 37v0z" />
    <glyph glyph-name="threesuperior" unicode="&#xb3;" horiz-adv-x="354" 
d="M9 727q34 21 68.5 32.5t77.5 11.5q72 0 109.5 -34t37.5 -86q0 -40 -23.5 -70.5t-58.5 -42.5q43 -10 67 -42.5t24 -79.5q0 -59 -45.5 -98.5t-122.5 -39.5q-39 0 -76 11.5t-67 28.5l24 35q29 -17 56 -25t67 -8q48 0 81.5 25.5t33.5 69.5q0 51 -32 77t-107 26h-20l-7 38h32
q61 0 92.5 25t31.5 69q0 35 -26.5 58t-71.5 23q-64 0 -123 -38l-22 34v0z" />
    <glyph glyph-name="onequarter" unicode="&#xbc;" horiz-adv-x="716" 
d="M166 765v-429h-49v375l-84 -42l-23 31l126 65h30zM34 -134l502 834h49l-496 -834h-55zM615 -31h81l-4 -39h-77v-93h-48v93h-233l-4 39l253 352h32v-352zM567 -31v261l-185 -261h185z" />
    <glyph glyph-name="onehalf" unicode="&#xbd;" horiz-adv-x="750" 
d="M166 765v-429h-49v375l-84 -42l-23 31l126 65h30zM30 -134l502 834h49l-496 -834h-55zM433 287q28 15 68 26.5t75 11.5q47 0 78.5 -18t46.5 -45.5t15 -57.5q0 -41 -24.5 -79t-80.5 -88l-125 -109h238l6 -38h-301v40l156 139q49 45 66 77q16 31 16 55q0 33 -23 58.5
t-70 25.5q-29 0 -63.5 -11t-58.5 -24z" />
    <glyph glyph-name="threequarters" unicode="&#xbe;" horiz-adv-x="767" 
d="M9 727q34 21 68.5 32.5t77.5 11.5q72 0 109.5 -34t37.5 -86q0 -40 -23.5 -70.5t-58.5 -42.5q43 -10 67 -42.5t24 -79.5q0 -59 -45.5 -98.5t-122.5 -39.5q-39 0 -76 11.5t-67 28.5l24 35q29 -17 56 -25t67 -8q48 0 81.5 25.5t33.5 69.5q0 51 -32 77t-107 26h-20l-7 38h32
q61 0 92.5 25t31.5 69q0 35 -26.5 58t-71.5 23q-64 0 -123 -38zM115 -134l501 834h50l-497 -834h-54zM665 -31h82l-4 -39h-78v-93h-48v93h-233l-4 39l253 352h32v-352zM617 -31v261l-185 -261h185z" />
    <glyph glyph-name="minus" unicode="&#x2212;" horiz-adv-x="471" 
d="M30 295h402l9 -44h-403z" />
    <glyph glyph-name="perthousand" unicode="&#x2030;" horiz-adv-x="1187" 
d="M226 0l308 710l53 -4l-309 -710zM38 532q0 51 20 89.5t55 59.5t79 21q69 0 111 -45t42 -125q0 -51 -20 -89t-55 -59t-77 -21q-70 0 -112.5 44.5t-42.5 124.5zM291 532q0 61 -28 94t-71 33q-40 0 -70 -33t-30 -94q0 -59 29.5 -92.5t71.5 -33.5q40 0 69 32.5t29 93.5z
M478 168q0 51 20 89.5t55 59.5t79 21q69 0 111 -45t42 -125q0 -51 -20.5 -89t-55 -59t-77.5 -21q-69 0 -111.5 45t-42.5 124zM842 168q0 51 20 89.5t55 59.5t78 21q71 0 112.5 -45t41.5 -125q0 -51 -20.5 -89t-55 -59t-77.5 -21q-70 0 -112 44.5t-42 124.5zM731 168
q0 61 -28 93.5t-71 32.5q-41 0 -70.5 -32t-29.5 -94q0 -59 29 -92t71 -33q40 0 69.5 32.5t29.5 92.5zM1095 168q0 61 -28 93.5t-72 32.5q-40 0 -69.5 -32.5t-29.5 -93.5q0 -59 29 -92t71 -33q40 0 69.5 32.5t29.5 92.5z" />
    <glyph glyph-name="fraction" unicode="&#x2044;" horiz-adv-x="380" 
d="M10 0l308 710l52 -4l-309 -710z" />
    <glyph glyph-name="copyright" unicode="&#xa9;" horiz-adv-x="789" 
d="M394 690q106 0 187 -46.5t125.5 -127.5t44.5 -180q0 -98 -44.5 -178.5t-125.5 -127t-187 -46.5q-108 0 -188.5 46.5t-124 126.5t-43.5 179t44 180t125 127.5t187 46.5zM394 647q-91 0 -160 -40.5t-106.5 -111t-37.5 -158.5t37.5 -158.5t106.5 -111t160 -40.5t160.5 40.5
t107.5 111.5t38 158t-38 158t-107.5 111.5t-160.5 40.5zM543 156q-24 -19 -64 -30.5t-72 -11.5q-95 0 -152 61.5t-57 165.5q0 69 26.5 120t74.5 79t111 28q32 0 72 -11.5t63 -30.5l-20 -37q-28 16 -53.5 25t-63.5 9q-72 0 -113.5 -49.5t-41.5 -131.5q0 -87 39.5 -135.5
t113.5 -48.5q37 0 62.5 8.5t54.5 25.5z" />
    <glyph glyph-name="registered" unicode="&#xae;" horiz-adv-x="710" 
d="M356 800q93 0 165 -41t112 -112.5t40 -159.5q0 -87 -40 -158t-112 -112t-165 -41t-165.5 41t-112.5 112t-40 158q0 88 39.5 159.5t111.5 112.5t167 41zM356 758q-81 0 -141.5 -35t-93.5 -96.5t-33 -138.5q0 -76 33 -137.5t93.5 -97t141.5 -35.5q80 0 140 35.5t92.5 97
t32.5 137.5q0 77 -32.5 138.5t-92.5 96.5t-140 35zM478 572q0 -36 -19.5 -61.5t-49.5 -38.5l99 -168h-52l-90 159h-14q-5 -1 -15 -1h-42v-158h-45v376h92q63 0 99.5 -26t36.5 -82zM431 571q0 45 -25 59t-75 14h-36v-147h31q48 0 76.5 16t28.5 58z" />
    <glyph glyph-name="trademark" unicode="&#x2122;" horiz-adv-x="714" 
d="M10 680h278l3 -38h-116v-336h-48v336h-117v38zM623 573l-104 -153l-12 -2l-105 154v-266h-46v374h19l138 -197l133 197h21v-374h-44v267z" />
    <glyph glyph-name="ampersand" unicode="&#x26;" horiz-adv-x="654" 
d="M617 33l-27 -33l-91 82q-36 -45 -88.5 -70t-118.5 -25q-69 0 -124.5 25.5t-87.5 74.5t-32 116q0 66 30 119.5t80 86.5q-35 51 -35 112q0 48 22 88t61.5 63.5t91.5 23.5q79 0 151 -39l-21 -41q-5 3 -22.5 11.5t-41 15.5t-61.5 7q-36 0 -65 -17.5t-45.5 -46t-16.5 -60.5
q0 -50 25 -88.5t83 -93.5l203 -191q23 39 35.5 87.5t14.5 98.5l41 -14q-3 -121 -53 -206zM294 33q52 0 95 22t74 61l-230 210q-31 27 -47 47q-41 -27 -62.5 -70.5t-21.5 -97.5q0 -53 27 -92t71.5 -59.5t93.5 -20.5z" />
    <glyph glyph-name="at" unicode="@" horiz-adv-x="762" 
d="M514 406l18 -22l-24 -201q-1 -5 -1 -14q0 -32 16.5 -47t42.5 -15q47 0 77 50t30 140q0 74 -31 131.5t-89 89.5t-136 32q-90 0 -163.5 -42t-116.5 -118t-43 -176q0 -81 35.5 -142t96.5 -94t136 -33q44 0 88.5 9t74.5 26l14 -42q-75 -39 -188 -39q-83 0 -154.5 39
t-115 110.5t-43.5 164.5q0 105 45.5 192t132 138t204.5 51q89 0 158 -37.5t107.5 -103.5t38.5 -149q0 -117 -43.5 -179t-119.5 -62q-25 0 -46 9.5t-35 26.5q-19 -14 -45 -23.5t-50 -9.5q-74 0 -116.5 40t-42.5 105q0 56 29.5 100.5t79.5 69.5t108 25h71zM281 211
q0 -45 27 -74.5t76 -29.5q23 0 44.5 7t34.5 18q-5 14 -5 34q0 8 2 24l23 177h-45q-42 0 -78 -19t-57.5 -54.5t-21.5 -82.5z" />
    <glyph glyph-name="asciicircum" unicode="^" horiz-adv-x="414" 
d="M345 143l-140 203l-141 -203h-54l169 247h51l169 -247h-54z" />
    <glyph glyph-name="asciitilde" unicode="~" horiz-adv-x="378" 
d="M120 252q-19 0 -33 -11t-15 -31h-42q0 41 24.5 63t65.5 22q43 0 77 -24q33 -24 60 -24q20 0 33.5 11.5t13.5 30.5h44q0 -41 -24.5 -63t-65.5 -22q-34 0 -70 24q-37 24 -68 24z" />
    <glyph glyph-name="section" unicode="&#xa7;" horiz-adv-x="566" 
d="M458 112q10 -24 10 -59q0 -77 -61 -124.5t-170 -47.5q-43 0 -100 13t-82 29l15 44q32 -16 76 -27.5t90 -11.5q83 0 130 36t47 90t-43 91.5t-139 77.5q-92 38 -137.5 87.5t-45.5 116.5q0 40 18.5 72.5t53.5 54.5q-12 29 -12 63q0 46 25.5 83.5t73 58.5t110.5 21
q47 0 90.5 -11t77.5 -28l-22 -41q-36 16 -67 25t-77 9q-71 0 -113.5 -33.5t-42.5 -86.5q0 -54 43 -91.5t141 -80.5q96 -43 139 -87t43 -112q0 -40 -18 -74t-53 -57zM474 244q0 54 -43 91.5t-140 77.5q-103 44 -146 98q-43 -35 -43 -87q0 -54 43 -91.5t141 -80.5
q53 -24 88.5 -46.5t57.5 -48.5q42 35 42 87z" />
    <glyph glyph-name="ordfeminine" unicode="&#xaa;" horiz-adv-x="332" 
d="M164 658q-21 0 -38 -3.5t-32.5 -10t-21.5 -8.5l-12 37q18 12 49.5 20.5t53.5 8.5q61 0 96 -36t35 -86v-208h-36l-11 36q-17 -19 -42.5 -32t-51.5 -13q-51 0 -83 29.5t-32 72.5q0 45 34 71t86 26h86v20q0 35 -20.5 55.5t-59.5 20.5zM167 526q-36 0 -58 -17t-22 -44
q0 -25 18.5 -43.5t47.5 -18.5q26 0 50 15t41 38v70h-77z" />
    <glyph glyph-name="logicalnot" unicode="&#xac;" horiz-adv-x="509" 
d="M10 406h461l8 -50v-244l-53 5v245h-408z" />
    <glyph glyph-name="paragraph" unicode="&#xb6;" horiz-adv-x="810" 
d="M387 636v-636h-55v264h-38q-112 0 -184 54t-72 157t66 154t179 51h490v-44h-106v-636h-55v636h-225z" />
    <glyph glyph-name="ordmasculine" unicode="&#xba;" horiz-adv-x="362" 
d="M27 532q0 51 20.5 89.5t55.5 59.5t77 21q67 0 111 -45.5t44 -124.5q0 -51 -20.5 -89t-56 -59t-78.5 -21q-66 0 -109.5 45t-43.5 124zM282 532q0 60 -29.5 94t-72.5 34q-40 0 -70.5 -33.5t-30.5 -94.5q0 -59 29.5 -93t71.5 -34q41 0 71.5 33t30.5 94z" />
    <glyph glyph-name="space" unicode=" " horiz-adv-x="238" 
 />
  </font>
</defs>
</svg>
